<svg xmlns="http://www.w3.org/2000/svg" width="226.4" height="39.43" viewBox="0 0 226.4 39.43">
  <defs>
    <style>
      .cls-1 {
        fill: #ccc;
      }
    </style>
  </defs>
  <title>alternatyva</title>
  <g id="Livello_2" data-name="Livello 2">
    <g id="Livello_1-2" data-name="Livello 1">
      <g>
        <path class="cls-1" d="M0,31.27c3.14-5.37,4.82-11.38,7.4-17,.48-1,.91-2.13,1.32-3.21a2.77,2.77,0,0,1,3-1.84A2.93,2.93,0,0,1,14.75,11q4,9.58,8,19.18c.33.78.66,1.71-.52,2.07s-2.57.48-3.5-.62a5.82,5.82,0,0,1-1.11-2.24C17,26.94,15.47,26,13,26.2c-1.16.07-3.1.72-3.23-1.38a2.62,2.62,0,0,1,2.64-2.94c1.68-.12,1.92-1,1.27-2.36s-.68-2.86-2.32-4C9.51,20.13,7.74,24.59,6,29,4.48,32.69,4,32.92,0,31.9Z"/>
        <path class="cls-1" d="M181.5,5.09c.86-1.3.31-2.23,0-3.24A1.44,1.44,0,0,1,182.82,0c1.21-.23,1.44.76,1.31,1.61a13,13,0,0,1-1,3.61,46.41,46.41,0,0,1-3.94,7.16C173.51,20.13,168.9,28.5,164,36.72c-.83,1.41-1.63,3.23-3.77,2.58a3.69,3.69,0,0,1-2.69-3.84c0-2.19,1.57-3.05,3.44-3.49,5.18-1.21,5.9-2.76,3.18-7.35-1.7-2.87-2.89-6.08-5.54-8.33a1.85,1.85,0,0,1-.6-2.29c1.47-2.65.55-5-.6-7.44-.39-.81-.81-1.79,0-2.64a1,1,0,0,1,.87-.09c1,.47.48,1.46.66,2.22a14.84,14.84,0,0,0,.86,2.67,1.81,1.81,0,0,0,2.14.92c1-.17,1-.86.93-1.67-.1-.62-.25-1.49.56-1.54,1.15-.06.61,1.05.82,1.66a52.43,52.43,0,0,0,4.78,10.24c1,1.64,2,1.4,2.77-.08,1.72-3.44,4.22-6.56,4.53-10.6.07-.84.27-1.57,1.24-1.37s1.25.17,1.35-.93C179.26,2.3,180.39,3.8,181.5,5.09Z"/>
        <path class="cls-1" d="M108.4,24.12c0-3.87,0-7.49,0-11.11,0-1.58-.5-3.64,2.14-3.72s2.31,1.89,2.32,3.55c0,5.35,0,10.7,0,16.06,0,1.31.29,2.88-1.54,3.36a3.4,3.4,0,0,1-4-1.62c-2.87-4.27-5.81-8.49-8.73-12.72a19,19,0,0,0-1.31-1.42c0,4.81,0,9,0,13.1,0,1.45.07,2.83-2,2.8-1.87,0-2.16-1.26-2.16-2.78,0-5.77,0-11.55,0-17.32,0-1.12-.2-2.45,1.29-2.88a3.31,3.31,0,0,1,3.87,1.39c2.42,3.43,4.8,6.89,7.23,10.31C106.26,22.11,106.73,23.33,108.4,24.12Z"/>
        <path class="cls-1" d="M72.56,20.89c0-2.94,0-5.88,0-8.82,0-2,.91-2.89,2.88-2.86,2.63,0,5.26-.11,7.87.07,2.76.2,5.2,1.23,6,4.21s.16,5.56-2.39,7.26c-2,1.36-2.07,2.47-.57,4.22,1.37,1.59,2.43,3.43,3.7,5.1,1.43,1.91.4,2.34-1.35,2.37a5.82,5.82,0,0,1-1.56-.15c-1.68-.41-7.81-8.95-7.75-10.69,0-1.17.83-1.59,1.76-1.94a5.6,5.6,0,0,0,3.1-2c1.33-2.06.6-3.66-1.84-4-4.68-.61-5.34,0-5.35,4.61,0,3.78,0,7.56,0,11.34,0,1.52-.27,2.76-2.17,2.77s-2.33-1.11-2.34-2.67C72.55,26.77,72.56,23.83,72.56,20.89Z"/>
        <path class="cls-1" d="M54.16,20.66c0-2.83.06-5.66,0-8.49-.06-2.17.91-3,3-3,3,.07,6.08,0,9.12,0,1.48,0,3.09-.06,3.14,2.12s-1.46,2.24-3,2.26-2.94,0-4.41,0c-1.81,0-3.37.11-3.33,2.59s1.81,2.38,3.5,2.4c1.36,0,2.72,0,4.08,0s2.55.32,2.5,2.08c-.05,1.58-1.16,1.83-2.39,1.85-1.78.05-3.56.07-5.35.05s-2.35.94-2.35,2.58.37,2.91,2.39,2.89,4.19,0,6.29.05c1.45,0,2.45.58,2.45,2.19s-1.13,2.12-2.52,2.13c-3.46,0-6.92,0-10.38,0-2,0-2.78-1-2.75-3C54.21,26.53,54.17,23.6,54.16,20.66Z"/>
        <path class="cls-1" d="M125.93,15.68q-2.61,6.53-5.22,13a11.88,11.88,0,0,1-1.34,2.83,2.69,2.69,0,0,1-3.44.6c-1.28-.59-.52-1.64-.19-2.45,2.47-6.12,5-12.22,7.45-18.34a3.09,3.09,0,0,1,3.11-2.15,3.23,3.23,0,0,1,3.37,2.25c2.48,6,5,12,7.5,18,.37.9,1.23,2-.23,2.68a2.82,2.82,0,0,1-3.48-.53,6.37,6.37,0,0,1-1.12-2.22,4.08,4.08,0,0,0-4.7-3.18c-1.19.08-3.09.64-3.25-1.4a2.6,2.6,0,0,1,2.66-2.91c1.75-.12,1.77-1.1,1.25-2.38l-1.53-3.74Z"/>
        <path class="cls-1" d="M214.72,15.12c-2,5-3.77,9.52-5.57,14-.58,1.45-1,3.09-3,3.21-1.61.1-2.85-.19-2-2.27,2.61-6.4,5.16-12.83,7.88-19.19,1-2.26,4.61-2.51,5.62-.29,3,6.56,5.73,13.26,8.55,19.92.27.62.31,1.29-.42,1.62a3.81,3.81,0,0,1-3.05,0,2.57,2.57,0,0,1-1.5-1.92c-.75-3.25-2.76-4.43-6-4-.86.12-2.09.27-2.34-1a3.1,3.1,0,0,1,1.15-2.79c.92-.89,3.13,0,3.14-1.42C217.24,19.15,216.22,17.3,214.72,15.12Z"/>
        <path class="cls-1" d="M194.3,24.84q2.47-6.24,5-12.48a7.66,7.66,0,0,1,1.07-2.25,3.4,3.4,0,0,1,4.08-.62c1.43.63.39,1.85,0,2.71C202,18.12,199.48,24,197,29.91a3.5,3.5,0,0,1-3.55,2.52c-1.81,0-2.57-1.13-3.15-2.57-2.31-5.75-4.67-11.47-6.91-17.25-.38-1-1.82-2.46.07-3.16,1.65-.61,3.61-.62,4.5,1.6,1,2.53,2,5.08,3,7.61.8,2,1.63,4.05,2.44,6.07Z"/>
        <path class="cls-1" d="M41.65,22.9c0-1.25,0-2.51,0-3.77.14-3.05.36-6.07-4.23-5.69-1.09.1-1.56-.86-1.58-1.94s.43-2.15,1.72-2.17q6.75-.09,13.49,0c1.28,0,1.75,1,1.7,2.2s-.79,2.08-2,1.95c-4-.41-4.32,2-4.19,5.07.15,3.65,0,7.32,0,11,0,1.69-.54,2.85-2.5,2.84s-2.44-1.25-2.44-2.9V22.9Z"/>
        <path class="cls-1" d="M141.86,22.76c0-1.26-.06-2.52,0-3.77.2-3.16.18-6-4.36-5.52-1.24.14-1.8-.9-1.79-2.11a1.83,1.83,0,0,1,1.89-2.06c4.39,0,8.78-.05,13.18,0,1.25,0,1.83.84,1.83,2.09s-.55,2.21-1.79,2.1c-4.22-.38-4.09,2.34-4,5.23.08,3.56,0,7.12,0,10.68,0,1.59-.3,3-2.33,3s-2.63-1.26-2.62-3c0-2.19,0-4.39,0-6.59Z"/>
        <path class="cls-1" d="M25.8,20.55v-8.8c0-1.44.47-2.44,2.14-2.49s2.4.91,2.39,2.55c0,4.3.12,8.6,0,12.89-.09,2.65,1,3.63,3.51,3.41a18.1,18.1,0,0,1,3.45.11c1.29.14,1.72,1.05,1.68,2.24a1.71,1.71,0,0,1-1.72,1.87c-3.14.07-6.29.1-9.42,0-1.61-.05-2-1.27-2-2.67C25.81,26.63,25.8,23.59,25.8,20.55Z"/>
        <path class="cls-1" d="M170.57,14.86a3.47,3.47,0,0,1-3.33-3.57A3.12,3.12,0,0,1,170.64,8a3.08,3.08,0,0,1,3.29,3.42C173.89,13.45,172.56,14.55,170.57,14.86Z"/>
      </g>
    </g>
  </g>
</svg>
