<svg xmlns="http://www.w3.org/2000/svg" width="457.43" height="553.63" viewBox="0 0 457.43 553.63">
  <defs>
    <style>
      .cls-1 {
        opacity: 0.6;
      }

      .cls-2 {
        fill: none;
        stroke: #f2f2f2;
        stroke-miterlimit: 10;
        stroke-width: 30px;
      }

      .cls-3 {
        fill: #f2f2f2;
      }
    </style>
  </defs>
  <title>astro</title>
  <g id="Livello_2" data-name="Livello 2">
    <g id="Livello_1-2" data-name="Livello 1">
      <g class="cls-1">
        <g>
          <path class="cls-2" d="M255.89,437.16C330.55,421,380.34,358.34,364.22,283.69S293,247.26,218.36,263.38s-140.6,4.06-124.48,78.7S181.24,453.28,255.89,437.16Z"/>
          <path class="cls-2" d="M275.55,528.15c102.13-22,164.36-64.52,154.88-108.41-.16-.76.32-74.67-5.49-101.58,14.19-3.07,21.16-26.59,15.55-52.57s-21.67-44.53-35.86-41.47a14.87,14.87,0,0,0-3.88,1.5C364.17,144.68,276.33,96.64,186.53,116s-150,99.4-149.88,188.23a14.89,14.89,0,0,0-4.16.23c-14.19,3.07-21.16,26.6-15.55,52.57s21.67,44.54,35.87,41.47c5.81,26.9,23.22,40.4,36.92,94.79C100.7,536.87,173.42,550.22,275.55,528.15Z"/>
        </g>
        <path class="cls-3" d="M177.68,18.36A35,35,0,1,1,130.31,4.2,35,35,0,0,1,177.68,18.36Z"/>
      </g>
    </g>
  </g>
</svg>
