<svg xmlns="http://www.w3.org/2000/svg" width="116.23" height="141.28" viewBox="0 0 116.23 141.28">
  <defs>
    <style>
      .circleMentor-1 {
        fill: #3cf;
      }

      .circleMentor-2 {
        fill: #d329bd;
      }
    </style>
  </defs>
  <title>circleMentor</title>
  <g id="Livello_2" data-name="Livello 2">
    <g id="Livello_1-2" data-name="Livello 1">
      <g>
        <path class="circleMentor-1" d="M110.9,118.11l.35.07a6.35,6.35,0,0,1,2,11.56,73.72,73.72,0,0,1-91.18-9.51,6.35,6.35,0,1,1,8.9-9.07A61,61,0,0,0,106.46,119,6.38,6.38,0,0,1,110.9,118.11ZM64.36,134.28a67.25,67.25,0,0,0,45.52-9.9h0A67.25,67.25,0,0,1,64.36,134.28Zm-.66-.1.55.08Z"/>
        <path class="circleMentor-2" d="M46.64.08A6.35,6.35,0,0,1,47.83.4a6.36,6.36,0,0,1,4.06,7,6.34,6.34,0,0,1-3.61,4.74,61,61,0,0,0-17.27,99,6.35,6.35,0,0,1-8.9,9.07A73.73,73.73,0,0,1,43,.58,6.37,6.37,0,0,1,46.64.08Zm-1,6.28,3.14.51-3.14-.52Z"/>
      </g>
    </g>
  </g>
</svg>
