<svg xmlns="http://www.w3.org/2000/svg" width="115.35" height="155.06" viewBox="0 0 115.35 155.06">
  <defs>
    <style>
      .crea-sito-1 {
        font-size: 16px;
        fill: #666;
        font-family: OpenSans, Open Sans;
      }

      .crea-sito-2 {
        fill: #4286fb;
      }
    </style>
  </defs>
  <title>crea-sito</title>
  <g id="Livello_2" data-name="Livello 2">
    <g id="Livello_1-2" data-name="Livello 1">
      <g>
        <text class="crea-sito-1" transform="translate(0 129.72)">Scrivere le basi <tspan x="24.81" y="21">di codice</tspan></text>
        <g>
          <path class="crea-sito-2" d="M25.31,9a1.8,1.8,0,1,1-1.79-1.8A1.8,1.8,0,0,1,25.31,9Z"/>
          <path class="crea-sito-2" d="M32.5,9a1.8,1.8,0,1,1-1.79-1.8A1.8,1.8,0,0,1,32.5,9Z"/>
          <path class="crea-sito-2" d="M39.7,9a1.8,1.8,0,1,1-1.8-1.8A1.81,1.81,0,0,1,39.7,9Z"/>
          <path class="crea-sito-2" d="M46.24,50.76l-9.13-7.61,9.13-7.61a1.8,1.8,0,1,0-2.3-2.76l-10.79,9a1.81,1.81,0,0,0,0,2.76l10.79,9a1.8,1.8,0,1,0,2.3-2.76Z"/>
          <path class="crea-sito-2" d="M61.69,53.29a1.77,1.77,0,0,0,1.38.65,1.79,1.79,0,0,0,1.15-.42l10.79-9a1.81,1.81,0,0,0,0-2.76l-10.79-9a1.8,1.8,0,0,0-2.3,2.76l9.13,7.61-9.13,7.61a1.79,1.79,0,0,0-.23,2.53Z"/>
          <path class="crea-sito-2" d="M60.18,28.91a1.79,1.79,0,0,0-2.36.95L47,55A1.8,1.8,0,0,0,48,57.39a1.76,1.76,0,0,0,.71.14,1.79,1.79,0,0,0,1.65-1.09L61.13,31.27a1.8,1.8,0,0,0-1-2.36Z"/>
          <path class="crea-sito-2" d="M99.46,61.18,96,60.32l1.83-3a1.81,1.81,0,0,0-.27-2.2l-4-3.94V7.19A7.2,7.2,0,0,0,86.44,0H21.72a7.2,7.2,0,0,0-7.19,7.19V71.92a7.2,7.2,0,0,0,7.19,7.19h44l3.94,3.94a1.8,1.8,0,0,0,2.19.27l3-1.83.86,3.45a1.8,1.8,0,0,0,1.74,1.36h7.19a1.8,1.8,0,0,0,1.75-1.36l.86-3.45,3,1.83a1.81,1.81,0,0,0,2.2-.27L97.58,78a1.8,1.8,0,0,0,.27-2.19l-1.83-3,3.45-.87a1.81,1.81,0,0,0,1.36-1.74V62.93a1.81,1.81,0,0,0-1.37-1.75Zm-81.34-54a3.6,3.6,0,0,1,3.6-3.59H86.44A3.6,3.6,0,0,1,90,7.19v7.19H18.12ZM64.4,75.51H21.72a3.6,3.6,0,0,1-3.6-3.59V18H90v31.9l-2.79,1.67-.86-3.44a1.8,1.8,0,0,0-1.75-1.36H77.45a1.8,1.8,0,0,0-1.74,1.36l-.86,3.44-3-1.82a1.77,1.77,0,0,0-2.19.27l-5.09,5.08a1.81,1.81,0,0,0-.27,2.2l1.83,3-3.45.86a1.8,1.8,0,0,0-1.36,1.75v7.19a1.8,1.8,0,0,0,1.36,1.74l3.45.87Zm32.83-6.8-3.09.78a1.8,1.8,0,0,0-1.26,1.15A10.47,10.47,0,0,1,92.33,72a1.84,1.84,0,0,0,.08,1.72L94,76.42l-3.1,3.09-2.72-1.63a1.79,1.79,0,0,0-1.71-.07,13.16,13.16,0,0,1-1.35.55A1.8,1.8,0,0,0,84,79.62l-.77,3.09H78.86l-.78-3.09a1.77,1.77,0,0,0-1.14-1.26,13.16,13.16,0,0,1-1.35-.55,1.79,1.79,0,0,0-1.71.07l-2.72,1.63-3.1-3.09,1.63-2.72A1.81,1.81,0,0,0,69.76,72a12.09,12.09,0,0,1-.54-1.34A1.8,1.8,0,0,0,68,69.49l-3.09-.78V64.33L68,63.56a1.82,1.82,0,0,0,1.26-1.15,13.1,13.1,0,0,1,.54-1.35,1.79,1.79,0,0,0-.07-1.71l-1.63-2.72,3.1-3.1,2.72,1.63a1.79,1.79,0,0,0,1.71.08,13.16,13.16,0,0,1,1.35-.55,1.77,1.77,0,0,0,1.14-1.26l.78-3.09h4.38L84,53.43a1.8,1.8,0,0,0,1.15,1.26,13.16,13.16,0,0,1,1.35.55,1.79,1.79,0,0,0,1.71-.08l2.72-1.63,3.1,3.1-1.63,2.72a1.82,1.82,0,0,0-.08,1.71,11.24,11.24,0,0,1,.55,1.35,1.82,1.82,0,0,0,1.26,1.15l3.09.77Z"/>
          <path class="crea-sito-2" d="M81.05,57.53a9,9,0,1,0,9,9,9,9,0,0,0-9-9Zm0,14.39a5.4,5.4,0,1,1,5.39-5.4,5.4,5.4,0,0,1-5.39,5.4Z"/>
        </g>
      </g>
    </g>
  </g>
</svg>
