<svg xmlns="http://www.w3.org/2000/svg" width="139.66" height="155.62" viewBox="0 0 139.66 155.62">
  <defs>
    <style>
      .crea-mockup-1 {
        font-size: 16px;
        fill: #666;
        font-family: OpenSans, Open Sans;
      }

      .crea-mockup-2 {
        fill: #4286fb;
      }
    </style>
  </defs>
  <title>crea-mockup</title>
  <g id="Livello_2" data-name="Livello 2">
    <g id="Livello_1-2" data-name="Livello 1">
      <g>
        <text class="crea-mockup-1" transform="translate(16.49 130.28)">Sviluppare un <tspan x="-16.49" y="21">mockup navigabile</tspan></text>
        <g>
          <path class="crea-mockup-2" d="M102.53,0H67.92a9.11,9.11,0,0,0-9.1,9.1V37.6a1.41,1.41,0,0,0,2.82,0v-27h47.17V76.79H82.4a1.41,1.41,0,0,0,0,2.82h26.28a6.3,6.3,0,0,1-6.15,5H67.92a1.41,1.41,0,0,0,0,2.82h34.61a9.12,9.12,0,0,0,9.1-9.11V9.1A9.11,9.11,0,0,0,102.53,0ZM67.92,2.82h34.61a6.29,6.29,0,0,1,6.15,5H61.78A6.27,6.27,0,0,1,67.92,2.82Z"/>
          <path class="crea-mockup-2" d="M89.18,65.44A5.54,5.54,0,0,0,84.94,56a5.55,5.55,0,0,0-5.53-5.87h-.32a5.53,5.53,0,0,0-4-5.65L88.92,30.58a5.54,5.54,0,1,0-7.84-7.84l-28,28a17.94,17.94,0,0,0-5.24,14.87L28.45,85a1.41,1.41,0,0,0,0,2,1.36,1.36,0,0,0,1,.41,1.4,1.4,0,0,0,1-.41L50.35,67.09a1.4,1.4,0,0,0,.4-1.21,15.14,15.14,0,0,1,4.34-13.17l28-28a2.73,2.73,0,0,1,3.86,3.86l-17.3,17.3a1.41,1.41,0,1,0,2,2,2.73,2.73,0,1,1,3.85,3.86,1.44,1.44,0,0,0-.41,1,1.4,1.4,0,0,0,.41,1,1.42,1.42,0,0,0,2,0,2.73,2.73,0,1,1,3.85,3.86,1.42,1.42,0,0,0,0,2,1.42,1.42,0,0,0,2,0,2.73,2.73,0,0,1,3.86,3.85L76.5,74.13a15.13,15.13,0,0,1-13.16,4.34,1.41,1.41,0,0,0-1.22.4L56,85a1.41,1.41,0,0,0,2,2l5.64-5.64A18,18,0,0,0,78.5,76.12Z"/>
        </g>
      </g>
    </g>
  </g>
</svg>
