<svg xmlns="http://www.w3.org/2000/svg" width="106.75" height="153.91" viewBox="0 0 106.75 153.91">
  <defs>
    <style>
      .crea-logo-1 {
        font-size: 16px;
        fill: #666;
        font-family: OpenSans, Open Sans;
      }

      .crea-logo-2 {
        fill: #4286fb;
      }
    </style>
  </defs>
  <title>crea-logo</title>
  <g id="Livello_2" data-name="Livello 2">
    <g id="Livello_1-2" data-name="Livello 1">
      <g>
        <text class="crea-logo-1" transform="translate(14.39 128.57)">Creare un <tspan x="-14.39" y="21">logo vettoriale</tspan></text>
        <path class="crea-logo-2" d="M94.13,40.72h-3.2a37.61,37.61,0,0,0-24-34H79.32A5.49,5.49,0,1,0,87.11.57,1.25,1.25,0,0,0,86,2.81a3,3,0,1,1-3.3.42,1.25,1.25,0,0,0-1.63-1.89,5.51,5.51,0,0,0-1.75,2.9H58.88v-3A1.25,1.25,0,0,0,57.63,0H49.16a1.25,1.25,0,0,0-1.25,1.25v3H27.47a5.49,5.49,0,1,0-10.55,3,1.25,1.25,0,0,0,2.37-.8,3,3,0,1,1,4.79,1.31,3,3,0,0,1-2.16.72A1.25,1.25,0,0,0,21.75,11a5.56,5.56,0,0,0,4-1.32,5.49,5.49,0,0,0,1.76-2.91H39.88a37.63,37.63,0,0,0-24,34H12.62A1.25,1.25,0,0,0,11.37,42v8.61a1.25,1.25,0,0,0,1.25,1.25h8.61a1.25,1.25,0,0,0,1.25-1.25V42a1.25,1.25,0,0,0-1.25-1.25H18.35A35.14,35.14,0,0,1,47.91,7.16V9.72A1.25,1.25,0,0,0,49.16,11h2.42a5.13,5.13,0,0,0-3,2.83L37.49,39.31A17.17,17.17,0,0,0,40.71,58c.23.25.47.49.72.73H38.59a4.22,4.22,0,0,0-3.9,2.59,1.24,1.24,0,1,0,2.29,1,1.75,1.75,0,0,1,1.61-1.07H68.2A1.75,1.75,0,0,1,69.94,63v4.32A1.74,1.74,0,0,1,68.2,69H38.59a1.75,1.75,0,0,1-1.75-1.75v-.53a1.25,1.25,0,1,0-2.49,0v.53a4.24,4.24,0,0,0,4.24,4.24H39V82.75A1.24,1.24,0,0,0,40.25,84H66.53a1.25,1.25,0,0,0,1.25-1.25v-3a1.25,1.25,0,1,0-2.49,0V81.5H41.5v-10H65.29v3.24a1.25,1.25,0,1,0,2.49,0V71.53h.42a4.25,4.25,0,0,0,4.24-4.25V63a4.24,4.24,0,0,0-4.24-4.24H65.38a17.54,17.54,0,0,0,3.89-5.54,1.25,1.25,0,0,0-2.29-1,14.58,14.58,0,0,1-5.67,6.55H45.55a14.78,14.78,0,0,1-7-12.53,14.55,14.55,0,0,1,1.24-5.89l11.1-25.51a2.72,2.72,0,0,1,1.27-1.36V37.86a7.61,7.61,0,0,0-5.92,5A1.26,1.26,0,0,0,47,44.46a1.25,1.25,0,0,0,1.58-.78,5.09,5.09,0,0,1,9.84,1l0,.62c0,5.45-7.68,7.16-9.79,1.88a1.25,1.25,0,0,0-2.32.92,7.57,7.57,0,1,0,8.28-10.27V13.44a2.68,2.68,0,0,1,1.26,1.35L67,40.33a14.64,14.64,0,0,1,1.16,7.41,1.25,1.25,0,1,0,2.48.27,17,17,0,0,0-1.35-8.67L58.19,13.8a5.16,5.16,0,0,0-3-2.83h2.43a1.25,1.25,0,0,0,1.25-1.25V7.16A35.14,35.14,0,0,1,88.44,40.72H85.52A1.25,1.25,0,0,0,84.27,42v8.61a1.25,1.25,0,0,0,1.25,1.25h8.61a1.25,1.25,0,0,0,1.25-1.25V42a1.25,1.25,0,0,0-1.25-1.25ZM20,43.22v6.11H13.87V43.22ZM56.38,8.47h-6v-6h6Zm36.5,40.86H86.76V43.22h6.12Z"/>
      </g>
    </g>
  </g>
</svg>
