<svg xmlns="http://www.w3.org/2000/svg" width="105.53" height="188.57" viewBox="0 0 105.53 188.57">
  <defs>
    <style>
      .crea-funnel-1 {
        font-size: 16px;
        fill: #666;
        font-family: OpenSans, Open Sans;
      }

      .crea-funnel-2 {
        fill: #4286fb;
      }
    </style>
  </defs>
  <title>crea-funnel</title>
  <g id="Livello_2" data-name="Livello 2">
    <g id="Livello_1-2" data-name="Livello 1">
      <g>
        <text class="crea-funnel-1" transform="translate(4.78 121.23)">Strutturare e<tspan x="-4.78" y="21">sviluppare un </tspan><tspan x="24.03" y="42">funnel</tspan></text>
        <g>
          <path class="crea-funnel-2" d="M53,72.54a1.51,1.51,0,0,1-1.12-.39l-.1-.1-.13,0c-.17,0-.29-.1-.29-.45a.73.73,0,0,1,.35-.68,1.92,1.92,0,0,1,2.3,0l0,0a.69.69,0,0,1,.32.65v.5h3v-.5a3.87,3.87,0,0,0-1.4-3.07,5.18,5.18,0,0,0-1.67-.8v-2h-3v2a5.11,5.11,0,0,0-1.69.82,4.07,4.07,0,0,0,0,6.11,4.85,4.85,0,0,0,3.13,1.18,1.6,1.6,0,0,1,1.19.45.85.85,0,0,1,0,1.34,2.13,2.13,0,0,1-2.35.06,1.92,1.92,0,0,1-.17-.74v-.5h-3v.5A3.85,3.85,0,0,0,49.73,80a6,6,0,0,0,1.67.92v2h3V80.78a3.71,3.71,0,0,0,1.69-.94,4.07,4.07,0,0,0,0-6.11A4.76,4.76,0,0,0,53,72.54Z"/>
          <path class="crea-funnel-2" d="M52.83,61.19a13.06,13.06,0,1,0,13.06,13A13.07,13.07,0,0,0,52.83,61.19Zm10.06,13a10.06,10.06,0,1,1-10.06-10A10.07,10.07,0,0,1,62.89,74.24Z"/>
          <path class="crea-funnel-2" d="M64.64,9l-.48,0-.4,3,.51,0C76.26,13.18,80,15.74,80,16.49a.68.68,0,0,1-.12.22l-.32.58c-2.32,1.94-12,4.62-26.72,4.62-14.26,0-24.51-2.41-26.9-4.66L25.67,17a1.76,1.76,0,0,1-.13-.18c0-1,5.48-3.9,19-4.85l.5,0-.2-3-.5,0c-3.64.24-21.84,1.73-21.84,7.85a4.66,4.66,0,0,0,.55,1.89.69.69,0,0,0,.32.41L44.32,45V57.41a1.67,1.67,0,0,0,.54,1.16,1.55,1.55,0,0,0,1,.41L60,56.29a1.47,1.47,0,0,0,1.18-1.42V45L82.32,18.84v-.16A3.61,3.61,0,0,0,83,16.53C83,11.35,70.16,9.5,64.64,9Zm-6,34.39-.06.09a2.23,2.23,0,0,0-.32,1v8.94L47.32,55.47V44.32a1.4,1.4,0,0,0-.23-.73L47,43.43,30.08,22.2c5.53,1.62,13.85,2.58,22.75,2.58s17.22-1,22.75-2.58Z"/>
          <polygon class="crea-funnel-2" points="48.42 19.77 53.81 14.53 51.63 12.35 49.86 14.12 49.86 8.42 46.85 8.42 46.85 14.07 45.23 12.34 43.04 14.53 48.42 19.77"/>
          <rect class="crea-funnel-2" x="46.86" y="4.54" width="3" height="3"/>
          <polygon class="crea-funnel-2" points="62.64 9.97 60.43 7.96 58.78 9.6 58.66 3.87 55.81 3.87 55.81 9.63 54.04 7.97 51.84 9.97 57.24 15.37 62.64 9.97"/>
          <rect class="crea-funnel-2" x="55.81" width="3" height="3"/>
        </g>
      </g>
    </g>
  </g>
</svg>