<svg xmlns="http://www.w3.org/2000/svg" width="165.05" height="163.97" viewBox="0 0 165.05 163.97">
  <defs>
    <style>
      .crea-campagne-1 {
        font-size: 16px;
        fill: #666;
        font-family: OpenSans, Open Sans;
      }

      .crea-campagne-2 {
        fill: #4286fb;
      }
    </style>
  </defs>
  <title>crea-campagne</title>
  <g id="Livello_2" data-name="Livello 2">
    <g id="Livello_1-2" data-name="Livello 1">
      <g>
        <text class="crea-campagne-1" transform="translate(0 117.63)">Lanciare e monitorare<tspan x="8.08" y="21">campagne Fb Ads e </tspan><tspan x="19.88" y="42">Google AdWords</tspan></text>
        <g>
          <path class="crea-campagne-2" d="M118.51,0H46.42a4,4,0,0,0-4,4V59.47a4,4,0,0,0,4,4h26l-3.76,7h-4a1.14,1.14,0,0,0-1.21,1.21v7.16a1.15,1.15,0,0,0,1.21,1.22h35.81a1.15,1.15,0,0,0,1.21-1.22V71.73a1.14,1.14,0,0,0-1.21-1.21h-4l-3.76-7h26a4,4,0,0,0,4-4V4A4.24,4.24,0,0,0,118.51,0ZM46.42,2.43h72.09A1.61,1.61,0,0,1,120.09,4v44.3H44.84V4A1.61,1.61,0,0,1,46.42,2.43ZM99.21,77.68H65.83V72.94H99.21Zm-5.7-7.16H71.42l3.76-7H89.75Zm25-9.47H46.42a1.53,1.53,0,0,1-1.58-1.58V50.61h75.25v8.86A1.53,1.53,0,0,1,118.51,61.05Z"/>
          <path class="crea-campagne-2" d="M82.46,51.7a4.13,4.13,0,1,0,4.13,4.13A4.09,4.09,0,0,0,82.46,51.7Zm0,5.71a1.7,1.7,0,1,1,1.7-1.7A1.66,1.66,0,0,1,82.46,57.41Z"/>
          <path class="crea-campagne-2" d="M67.41,25.37a4.07,4.07,0,0,0,4.13-4,3.38,3.38,0,0,0-.49-1.82L76.88,14a5.13,5.13,0,0,0,1.94.48,4.53,4.53,0,0,0,3-1.21L86,15.17v.61a4.13,4.13,0,0,0,8.26,0A4.44,4.44,0,0,0,94,14.44l4.74-3.52a4.19,4.19,0,0,0,6.55-3.27,4.18,4.18,0,0,0-4.25-4,4.07,4.07,0,0,0-4.12,4A5.18,5.18,0,0,0,97.15,9L92.42,12.5A4.15,4.15,0,0,0,90,11.77,4.54,4.54,0,0,0,87,13l-4.12-2v-.6a4.13,4.13,0,0,0-8.26,0,3.4,3.4,0,0,0,.49,1.82l-5.83,5.58a5.09,5.09,0,0,0-1.94-.48,4.07,4.07,0,0,0-4.13,4A4.27,4.27,0,0,0,67.41,25.37ZM101,6.07a1.64,1.64,0,0,1,1.7,1.58,1.71,1.71,0,0,1-3.4,0A1.64,1.64,0,0,1,101,6.07ZM90,14.2a1.58,1.58,0,1,1-1.7,1.58A1.64,1.64,0,0,1,90,14.2ZM78.82,8.86a1.64,1.64,0,0,1,1.7,1.58,1.7,1.7,0,0,1-3.4,0A1.64,1.64,0,0,1,78.82,8.86ZM67.41,19.78a1.56,1.56,0,0,1,1.22.49h0a1.32,1.32,0,0,1,.48,1.09,1.7,1.7,0,1,1-1.7-1.58Z"/>
          <path class="crea-campagne-2" d="M55.76,45.76h53.4a1.22,1.22,0,1,0,0-2.43h-4V15.9A1.14,1.14,0,0,0,104,14.69H98.48a1.14,1.14,0,0,0-1.21,1.21V43.33h-3.4V24.88a1.14,1.14,0,0,0-1.21-1.21H87.32a1.15,1.15,0,0,0-1.22,1.21V43.33H82.71V22.09a1.15,1.15,0,0,0-1.22-1.21H76a1.14,1.14,0,0,0-1.21,1.21V43.33H71.3V31.56a1.15,1.15,0,0,0-1.22-1.22H64.62a1.15,1.15,0,0,0-1.21,1.22V43.33H57V7.65a1.21,1.21,0,1,0-2.42,0V44.54A1.15,1.15,0,0,0,55.76,45.76ZM99.7,17.11h3V43.33h-3Zm-11.17,9h3V43.33h-3ZM77.24,23.3h3v20h-3ZM65.83,32.77h3V43.33h-3Z"/>
        </g>
      </g>
    </g>
  </g>
</svg>