<svg xmlns="http://www.w3.org/2000/svg" xmlns:xlink="http://www.w3.org/1999/xlink" width="251.78" height="277.25" viewBox="0 0 251.78 277.25">
  <defs>
    <style>
      .lsp-1 {
        fill: url(#linear-gradient);
      }

      .lsp-2 {
        font-size: 16px;
        fill: #666;
        font-family: OpenSans, Open Sans;
      }
    </style>
    <linearGradient id="linear-gradient" x1="102.34" y1="106.37" x2="154.47" y2="16.08" gradientUnits="userSpaceOnUse">
      <stop offset="0" stop-color="#7930c6"/>
      <stop offset="0.17" stop-color="#652cc3"/>
      <stop offset="0.53" stop-color="#3d23be"/>
      <stop offset="0.82" stop-color="#251ebb"/>
      <stop offset="1" stop-color="#1c1cba"/>
    </linearGradient>
  </defs>
  <title>lsp</title>
  <g id="Livello_2" data-name="Livello 2">
    <g id="Livello_1-2" data-name="Livello 1">
      <g>
        <path class="lsp-1" d="M135.65,69.25c-.11-.7-.64-1-1.46-.82l-1.38.24c.12.72.24,1.42.35,2.11l1.37-.24C135.34,70.4,135.76,70,135.65,69.25Zm28.95-26.7h-.21a39.67,39.67,0,0,0-77.21,0H87c-3.46,0-6.18,4.61-6.18,10.49,0,5.41,2.31,9.75,5.38,10.4a32.59,32.59,0,0,0,1.74,8,91.21,91.21,0,0,1,3,12.45c1.66,10.14,14.7,16.19,34.88,16.19s33.23-6,34.89-16.19a90,90,0,0,1,3-12.45,32.14,32.14,0,0,0,1.74-8c3.08-.65,5.38-5,5.38-10.4C170.78,47.16,168.07,42.55,164.6,42.55Zm0,19.36a.82.82,0,0,0-.82.81c0,2.69-.71,5-1.69,8.28a92.13,92.13,0,0,0-3,12.65c-1.52,9.29-14,14.83-33.27,14.83S94,92.94,92.52,83.65a90.08,90.08,0,0,0-3-12.65c-1-3.25-1.69-5.59-1.69-8.28a.81.81,0,0,0-.82-.81c-2.46,0-4.54-4.07-4.54-8.87S84.5,44.17,87,44.17a2.44,2.44,0,0,1,.62.09.76.76,0,0,0,.64-.08.75.75,0,0,0,.38-.52,38.39,38.39,0,0,1,13.12-21.43,38,38,0,0,1,48.13,0A38.37,38.37,0,0,1,163,43.66a.81.81,0,0,0,.38.52.78.78,0,0,0,.65.08,2.43,2.43,0,0,1,.61-.09c2.46,0,4.54,4.06,4.54,8.87S167.06,61.91,164.6,61.91Zm-42.67,9.63c0,.49,0,1,0,1.45h.41a1.8,1.8,0,0,0,0-.61A1.91,1.91,0,0,0,121.93,71.54ZM158.25,40.8C155.83,38.85,152.4,38,147.11,38c-2.79,0-5.9.23-9.19.47-3.87.29-7.88.59-12.14.59s-8.26-.3-12.14-.59c-3.29-.24-6.39-.47-9.19-.47C96.44,38,89,39.78,89,52.84a31.74,31.74,0,0,0,10.8,24.24c6.74,5.91,16,9.16,26,9.16S145,83,151.73,77.08a31.72,31.72,0,0,0,10.8-24.24C162.53,47.06,161.13,43.12,158.25,40.8Zm-41,3.46c1.61,1.41,3.29,2.9,5,4.45-.29-1.81-.57-3.55-.82-5.18l1.86-.31c.43,2.53.9,5.31,1.41,8.21l-1.86.33-5.15-4.66c.24,1.75.51,3.57.81,5.44l-1.92.35c-.44-2.9-.83-5.71-1.13-8.31ZM109,45.85l1.94-.4c1.45,2.39,3,4.95,4.72,7.61l-2.1.41-.92-1.55c-1.32.26-2.63.52-3.9.79-.15.59-.29,1.19-.42,1.79l-1.89.39C107.23,51.8,108.09,48.74,109,45.85Zm-4.14.91c0,.49.09,1,.14,1.5-1.41.32-2.78.65-4.09,1,.06.58.13,1.16.19,1.75l3.66-.87c0,.52.11,1,.17,1.55l-3.65.85c.07.61.14,1.22.22,1.83,1.35-.31,2.76-.63,4.21-.94.07.53.14,1.05.22,1.59-2.06.43-4,.86-5.85,1.28-.37-2.76-.68-5.47-1-8.11C101,47.69,102.89,47.22,104.9,46.76ZM94,49.69l1.39-.44c.26,2.09.51,4.2.78,6.34.89-.24,1.83-.47,2.81-.71.06.53.13,1.07.21,1.61-1.5.35-2.9.69-4.18,1C94.67,54.88,94.35,52.27,94,49.69Zm5.08,18.94a4.14,4.14,0,0,1-3.14-.86l.33-1.57a3.57,3.57,0,0,0,2.53.86c.64-.1,1-.44.88-1-.32-1.54-3.7-.07-4.05-2.92a2.46,2.46,0,0,1,2.09-2.89,4.19,4.19,0,0,1,2.73.37c-.13.56-.25,1.12-.37,1.67a4.23,4.23,0,0,0-2.24-.44c-.5.1-.79.38-.73.82.18,1.51,3.65,0,4.25,3A2.38,2.38,0,0,1,99.08,68.63Zm4.19-7.7-2.23.42c-.09-.53-.17-1.07-.26-1.6,2-.41,4.13-.83,6.38-1.26.08.55.17,1.1.27,1.66L105,60.6c.39,2.31.83,4.63,1.32,6.9l-1.75.27C104.09,65.51,103.65,63.22,103.27,60.93Zm4.94,14.73-1.15.15c.16.54.32,1.07.49,1.59l-1.3.16c-.58-1.82-1.12-3.75-1.61-5.75l2.43-.32A2.36,2.36,0,0,1,110,73.24C110.33,74.61,109.69,75.47,108.21,75.66Zm1.66-8.7-1.89.29c.55-3,1.2-6.15,2-9.29l2-.37c1.69,2.7,3.49,5.47,5.33,8.19l-2.1.34c-.35-.53-.69-1.06-1-1.59l-3.91.65C110.07,65.77,110,66.37,109.87,67Zm5.73,9.39c-.48-.48-.95-1-1.43-1.47l-.13,0-1.26.17c.15.54.31,1.07.46,1.6l-1.34.17c-.57-1.82-1.11-3.78-1.61-5.8l2.66-.39c1.62-.24,2.74.41,3.07,1.74a1.77,1.77,0,0,1-.68,2.07q.91.86,1.83,1.68Zm30.82-3.19q-.25,3.16-.65,5.86l-1,.59c.27-1.83.51-3.85.7-6-4.84.19-10.11.29-15.43.32a5.46,5.46,0,0,1-1.8.67,3.82,3.82,0,0,1-2.91-.67h-1.66a3.26,3.26,0,0,1-2.58,1.76A3.56,3.56,0,0,1,117,73.19c-.44-1.72.73-3.29,2.72-3.6a3.93,3.93,0,0,1,1.28,0c0-1.36-.06-2.76-.08-4.2v-.11l.06-.1,1.19-2.26-.42-.5-.19,0-1.88.32.48,2.54-2,.33c-.59-2.93-1.13-5.93-1.62-8.9l3.88-.7c2.27-.4,3.78.41,4.21,2.25.24-.45.48-.9.73-1.35h-.09l-.3-1.71,1.44-.25c2.8-5.21,5.59-10.27,8-14.51l1.06-.08c-2.36,4.18-5.12,9.2-7.93,14.4l5-.87c.11.57.22,1.14.32,1.71l-2.77.48c.44,2.41.87,4.86,1.29,7.27l-2,.36c-.43-2.41-.87-4.86-1.3-7.28l-1.58.28c-.63,1.15-1.25,2.32-1.87,3.48a2.61,2.61,0,0,1-.48.9l-.42.79L126,64.32l-2.32.39-.88-1.06-1,1.83c0,1.5,0,3,.08,4.36a3.24,3.24,0,0,1,2,2.32,3.08,3.08,0,0,1,0,.85h.65a2.91,2.91,0,0,1-.37-.91c-.37-1.74.9-3.39,3-3.74a4.48,4.48,0,0,1,2.83.47L129.35,70a3,3,0,0,0-1.94-.39,1.93,1.93,0,0,0-1.7,2.26,1.86,1.86,0,0,0,.75,1.15h2.66l.23-.14c-.1-.52-.19-1-.29-1.59l1.29-.21c.11.66.23,1.3.34,1.94H132c-.28-1.69-.57-3.45-.89-5.26l2.89-.51c1.74-.32,2.84.32,3,1.7a2.1,2.1,0,0,1-.92,2.22l1.65,1.73-.2,0c2.89-.06,5.71-.14,8.39-.24l.51,0Zm-8.33-.33c.67-2.14,1.32-4.4,1.95-6.71l1.49-.29q1.83,2.94,3.47,5.66l-1.5.3c-.21-.35-.41-.7-.63-1.06l-2.93.57-.36,1.26ZM150.9,70.2c-.13-1.35-.28-2.71-.45-4.1-.37,1.29-.75,2.58-1.16,3.84l-.87.2c-.65-1-1.32-2.09-2-3.17.18,1.4.34,2.78.48,4.12l-1.25.27c-.21-2-.46-4.07-.76-6.19l1.56-.31c.77,1.17,1.51,2.32,2.23,3.44.43-1.38.85-2.77,1.24-4.17l1.44-.31c.28,2.08.51,4.12.71,6.1Zm7.31-6-2.19.08h-.47v-.46c.08-3.46.06-6.95,0-10.38-1.68-.08-3.5-.14-5.42-.2a4.23,4.23,0,0,1,.29.87,2.89,2.89,0,0,1-2.58,3.71L147,58c0,2,0,4.07-.06,6.09v.43h-.42c-3.87.07-8,.12-12.42.14h-.74l.34-.64,1.62-3.06a4.16,4.16,0,0,1-.85-1.94c-.31-1.74-.64-3.49-1-5.2l2-.34c.33,1.71.66,3.45,1,5.18v0c3.76-7.31,6.91-14,9.11-18.85h1c-1.56,3.45-3.62,7.88-6.06,12.82l.92-.15c.35,1.68.68,3.39,1,5.11a3.66,3.66,0,0,1-3.26,4.5,4.18,4.18,0,0,1-3.18-.54l-1.16,2.2c3.94,0,7.71-.07,11.23-.13,0-1,0-1.94.05-2.92l-1.34.26c-.47-2.92-1-5.87-1.62-8.75,1.19-.19,2.36-.38,3.51-.55a3.27,3.27,0,0,1,2.85.67c2.33.07,4.51.15,6.5.24l.41,0,0,.4c.1,3.43.12,6.92.05,10.37l2.08-.07C158.44,63.57,158.33,63.86,158.21,64.16ZM110.14,47.55c-.32,1.14-.64,2.31-.94,3.49l2.65-.54C111.26,49.5,110.7,48.51,110.14,47.55ZM125.78,6.09a3.07,3.07,0,0,0,3.09-3,3.09,3.09,0,0,0-6.17,0A3.07,3.07,0,0,0,125.78,6.09Zm8.93,65.6-1.37.24c.06.36.12.71.17,1.06l2.42,0-1.09-1.29Zm28.94,21.46a.84.84,0,0,0-1.07.45c-3.23,7.88-17.77,13-37,13s-33.81-5.1-37-13a.84.84,0,0,0-1.07-.45A.81.81,0,0,0,87,94.21c3.48,8.49,18.62,14,38.56,14s35.07-5.49,38.55-14A.81.81,0,0,0,163.65,93.15ZM110.48,63.5l2.68-.46c-.67-1.06-1.32-2.12-2-3.18C111,61.08,110.71,62.29,110.48,63.5Zm2.75,8.29L112,72c.17.67.34,1.34.52,2l1.28-.17c.76-.11,1.11-.5.94-1.19A1.16,1.16,0,0,0,113.23,71.79Zm33.64-18.54c0,1,.06,2,.08,3l.48-.08c1-.18,1.49-.77,1.3-1.75S147.89,53.09,146.87,53.25ZM141,67.48c-.23.89-.46,1.76-.69,2.62l2-.39ZM122.72,58.9c-.17-1-.91-1.39-2-1.19l-1.88.33c.18,1,.35,2,.54,3l1.88-.32C122.35,60.55,122.91,59.93,122.72,58.9Zm22.62-5.4q.3,1.47.57,2.94l.15,0c0-1,0-2-.07-3Zm-38,19.11-1.09.15.54,2,1.09-.13c.73-.1,1.06-.48.87-1.15A1.14,1.14,0,0,0,107.29,72.61Zm31.56-12.29a1.9,1.9,0,0,0,1.6-2.41c-.23-1.26-.47-2.52-.72-3.77-.89,1.79-1.83,3.64-2.81,5.53A1.93,1.93,0,0,0,138.85,60.32ZM121.12,73.86l0-.42c0-.82,0-1.67-.08-2.53a2.09,2.09,0,0,0-1-.1A1.77,1.77,0,0,0,118.45,73a2.16,2.16,0,0,0,2.4,1.55,1.86,1.86,0,0,0,1.17-.66h-.9Z"/>
        <text class="lsp-2" transform="translate(4.95 149.97)">Programma di pre accelerazione <tspan x="47.47" y="21">per validare un’idea</tspan><tspan x="23.28" y="42" xml:space="preserve"> di startup in 10 settimane </tspan><tspan x="5.59" y="63" xml:space="preserve">mediante  la metodologia Lean </tspan></text>
      </g>
    </g>
  </g>
</svg>
