<svg xmlns="http://www.w3.org/2000/svg" width="121.7" height="162.16" viewBox="0 0 121.7 162.16">
  <defs>
    <style>
      .monitora-clienti-1 {
        font-size: 16px;
        fill: #666;
        font-family: OpenSans, Open Sans;
      }

      .monitora-clienti-2 {
        fill: #4286fb;
      }
    </style>
  </defs>
  <title>monitora-clienti</title>
  <g id="Livello_2" data-name="Livello 2">
    <g id="Livello_1-2" data-name="Livello 1">
      <g>
        <text class="monitora-clienti-1" transform="translate(10.54 115.83)">Monitorare il <tspan x="-10.54" y="21">comportamento</tspan><tspan x="14.72" y="42">dei clienti</tspan></text>
        <path class="monitora-clienti-2" d="M19.48,0A2,2,0,0,0,17.7,2V45.12a2,2,0,0,0,2,2H40.47l-2.6,7.85H34.19a2,2,0,0,0-1.78,2v7.85a2,2,0,0,0,2,2h41.2a18.53,18.53,0,0,0,11.71-4.17l13.39,13.39a2,2,0,0,0,2.79,0,2.07,2.07,0,0,0,0-2.82L90,59.74A18.49,18.49,0,0,0,94.2,48.06a18,18,0,0,0-.12-2.21,1.81,1.81,0,0,0,.12-.73V2a2,2,0,0,0-2-2H19.48Zm2.14,3.93H90.28V36.66a18.6,18.6,0,0,0-32.67,6.5h-36ZM51.81,9.78a2,2,0,0,0-1.74,2V35.31a2,2,0,0,0,3.92.06V11.77a2,2,0,0,0-1.92-2ZM44,15.66a2,2,0,0,0-1.75,2V35.31a2,2,0,0,0,3.92.06V17.66a2,2,0,0,0-1.91-2Zm-7.85,5.89a2,2,0,0,0-1.75,2V35.31a2,2,0,0,0,3.93.06V23.54a2,2,0,0,0-1.92-2Zm-7.84,5.88a2,2,0,0,0-1.75,2v5.88a2,2,0,1,0,3.92.06V29.43a2,2,0,0,0-1.92-2Zm47.29,5.92A14.71,14.71,0,1,1,60.86,48.06,14.68,14.68,0,0,1,75.57,33.35Zm-31,13.73H57c0,.33-.06.65-.06,1a18.47,18.47,0,0,0,1.32,6.87H42ZM36.34,58.85H60.4a18.69,18.69,0,0,0,3.77,3.92H36.34Z"/>
      </g>
    </g>
  </g>
</svg>