<svg xmlns="http://www.w3.org/2000/svg" width="293.81" height="903.91" viewBox="0 0 293.81 903.91">
  <defs>
    <style>
      .cls-1 {
        fill: #3cf;
        opacity: 0.7;
      }

      .cls-2 {
        fill: #d329bd;
        opacity: 0.5;
      }
    </style>
  </defs>
  <title>smile3</title>
  <g id="Livello_2" data-name="Livello 2">
    <g id="Livello_1-2" data-name="Livello 1">
      <g>
        <path class="cls-1" d="M158.58,16.57C46.79,143-9.1,305.29,1.21,473.7a49.12,49.12,0,1,0,98.05-6c-8.7-142.22,38.49-279.31,132.9-386a49.12,49.12,0,0,0-73.58-65.09Z"/>
        <path class="cls-2" d="M12.43,421.52A48.93,48.93,0,0,0,.19,457.06c10.31,168.41,85.58,322.73,212,434.52A49.12,49.12,0,0,0,277.24,818C170.52,723.59,107,593.28,98.24,451.06a49.11,49.11,0,0,0-85.81-29.54Z"/>
      </g>
    </g>
  </g>
</svg>
