<svg xmlns="http://www.w3.org/2000/svg" width="452.18" height="843.8" viewBox="0 0 452.18 843.8">
  <defs>
    <style>
      .cls-1 {
        fill: #d329bd;
        opacity: 0.5;
      }

      .cls-2 {
        fill: #3cf;
        opacity: 0.7;
      }
    </style>
  </defs>
  <title>smile2</title>
  <g id="Livello_2" data-name="Livello 2">
    <g id="Livello_1-2" data-name="Livello 1">
      <g>
        <path class="cls-1" d="M67.9,3.74C223.82,68.2,345.31,189.53,410,345.37A49.12,49.12,0,1,1,319.25,383C264.63,251.42,162,149,30.36,94.52A49.12,49.12,0,1,1,67.9,3.74Z"/>
        <path class="cls-2" d="M377,303.41A48.93,48.93,0,0,1,403.59,330c64.67,155.84,64.79,327.54.32,483.46a49.12,49.12,0,1,1-90.78-37.53c54.44-131.68,54.34-276.67-.27-408.27A49.11,49.11,0,0,1,377,303.41Z"/>
      </g>
    </g>
  </g>
</svg>
