<svg xmlns="http://www.w3.org/2000/svg" width="254.49" height="838.94" viewBox="0 0 254.49 838.94">
  <defs>
    <style>
      .smile-1 {
        fill: #4286fb;
      }

      .smile-2 {
        fill: #d329bd;
        opacity: 0.5;
      }
    </style>
  </defs>
  <title>smile</title>
  <g id="Livello_2" data-name="Livello 2">
    <g id="Livello_1-2" data-name="Livello 1">
      <g>
        <path class="smile-1" d="M241.6,382.24a45.32,45.32,0,0,1,12.88,32.37c-2.19,156.33-65.13,302.46-177.23,411.45a45.52,45.52,0,1,1-63.46-65.27c94.66-92,147.82-215.44,149.67-347.46a45.51,45.51,0,0,1,78.14-31.09Z"/>
        <path class="smile-2" d="M88.65,13.79c109,112.09,167.81,259.93,165.62,416.26a45.52,45.52,0,0,1-91-1.27c1.86-132-47.81-256.87-139.86-351.53A45.52,45.52,0,1,1,88.65,13.79Z"/>
      </g>
    </g>
  </g>
</svg>
