<svg xmlns="http://www.w3.org/2000/svg" viewBox="0 0 486.79 441.73"><defs><style>.smile1-1{fill:#d329bd;opacity:0.5;}.smile1-2{fill:#3cf;opacity:0.7;}</style></defs><title>smile1</title><g id="Livello_2" data-name="Livello 2"><g id="Livello_1-2" data-name="Livello 1"><path class="smile1-1" d="M454.65,441c-117,6.76-229.58-32.43-317.07-110.36A34.11,34.11,0,1,1,183,279.68a368,368,0,0,0,267.76,93.19A34.11,34.11,0,0,1,454.65,441Z"/><path class="smile1-2" d="M170.88,346.9a34.05,34.05,0,0,1-24.66-8.58C58.73,260.39,6.82,153.05.06,36.08a34.11,34.11,0,1,1,68.1-3.94A368,368,0,0,0,191.6,287.38a34.11,34.11,0,0,1-20.72,59.52Z"/></g></g></svg>