<svg xmlns="http://www.w3.org/2000/svg" xmlns:xlink="http://www.w3.org/1999/xlink" width="211.78" height="275.15" viewBox="0 0 211.78 275.15">
  <defs>
    <style>
      .unienel-1 {
        fill: url(#linear-gradient);
      }

      .unienel-2 {
        fill: url(#linear-gradient-2);
      }

      .unienel-3 {
        font-size: 16px;
        fill: #666;
        font-family: OpenSans, Open Sans;
      }
    </style>
    <linearGradient id="linear-gradient" x1="-1268.73" y1="1525.94" x2="-1229.07" y2="1457.26" gradientTransform="translate(1936.91 -687.78) rotate(27.24)" gradientUnits="userSpaceOnUse">
      <stop offset="0" stop-color="#3cf"/>
      <stop offset="0.21" stop-color="#2d9cec"/>
      <stop offset="0.48" stop-color="#2665d7"/>
      <stop offset="0.71" stop-color="#203dc7"/>
      <stop offset="0.89" stop-color="#1d25be"/>
      <stop offset="1" stop-color="#1c1cba"/>
    </linearGradient>
    <linearGradient id="linear-gradient-2" x1="1513.74" y1="-434.43" x2="1553.4" y2="-503.12" gradientTransform="translate(-1185.28 1038.99) rotate(-21.41)" gradientUnits="userSpaceOnUse">
      <stop offset="0.01" stop-color="#eb6988"/>
      <stop offset="0.04" stop-color="#e2668a"/>
      <stop offset="0.3" stop-color="#9c4c9b"/>
      <stop offset="0.54" stop-color="#6537a8"/>
      <stop offset="0.74" stop-color="#3d28b2"/>
      <stop offset="0.9" stop-color="#251fb8"/>
      <stop offset="1" stop-color="#1c1cba"/>
    </linearGradient>
  </defs>
  <title>unienel</title>
  <g id="Livello_2" data-name="Livello 2">
    <g id="Livello_1-2" data-name="Livello 1">
      <g>
        <g>
          <path class="unienel-1" d="M174.25,66.46A29.76,29.76,0,0,0,122.6,39.88c-2.33-1.42-5.84.83-7.93,4.9-1.89,3.67-1.86,7.4,0,8.9a24.84,24.84,0,0,0-1.64,6,67.92,67.92,0,0,1-2.34,9.47c-2.42,7.44,4.19,16,17.69,23s24.33,7.34,29,1a67.87,67.87,0,0,1,6.35-7.4,25.08,25.08,0,0,0,4-4.84c2.28.62,5.34-1.53,7.23-5.2C177,71.7,176.75,67.54,174.25,66.46Zm-.48,8.75c-1.68,3.25-4.49,5.29-6.13,4.44a.62.62,0,0,0-.83.27,21.71,21.71,0,0,1-4,5,68.76,68.76,0,0,0-6.45,7.53c-4.26,5.77-14.51,5.25-27.43-1.4s-19.3-14.69-17.07-21.51A71.66,71.66,0,0,0,114.22,60a21.47,21.47,0,0,1,1.76-6.2.63.63,0,0,0-.27-.83c-1.65-.85-1.62-4.32.06-7.58s4.48-5.29,6.13-4.44a1.93,1.93,0,0,1,.38.27.61.61,0,0,0,.9-.06,28.53,28.53,0,0,1,49.73,25.61.61.61,0,0,0,.07.49.62.62,0,0,0,.4.27,2,2,0,0,1,.45.15C175.47,68.48,175.45,72,173.77,75.21ZM161.15,28.45a2.32,2.32,0,1,0-1-3.12A2.32,2.32,0,0,0,161.15,28.45Zm-14.89,48c.18-.48-.08-.83-.66-1l-1-.3c-.16.49-.33,1-.5,1.45l1,.3C145.66,77.05,146.08,76.91,146.26,76.43Zm2.72,2,1.45.41c0-.61-.06-1.22-.08-1.85Zm-13.55-6.29a1.29,1.29,0,0,0-1.74.86,1.58,1.58,0,0,0,1.08,1.77,1.26,1.26,0,0,0,1.7-.82A1.54,1.54,0,0,0,135.43,72.19Zm19.8,28.25c-4.92,4.23-16.42,2.68-29.3-4S105.1,81.39,105.68,74.93a.61.61,0,0,0-.55-.67.62.62,0,0,0-.67.56c-.64,7,7.57,15.89,20.9,22.76s25.38,8.35,30.67,3.8a.62.62,0,0,0-.8-.94Zm9.06-43c-1.87-1-4-1.87-6.31-2.84-2.7-1.14-5.48-2.31-8.33-3.78s-5.42-3-7.91-4.58c-2.12-1.3-4.11-2.53-6-3.49-5.36-2.76-10.94-4.09-15.5,4.77-6.75,13.11-1.32,28,12.92,35.29s29.48,3.13,36.24-10C174,63.94,169.65,60.17,164.29,57.41Zm-2.8.47q-.11.54-.21,1.11l-3.1-1.11c-.1.43-.19.87-.3,1.31l2.82,1c-.08.38-.16.77-.26,1.15l-2.83-1c-.11.47-.23.93-.35,1.4l3.25,1.11c-.1.39-.2.79-.31,1.18l-4.63-1.55c.58-2.15,1.1-4.25,1.5-6.19Zm-9.84-3.46c.18,1.66.34,3.41.47,5.21,1-1.42,2-2.78,2.89-4.05l1.4.49c-1.2,1.66-2.57,3.48-4,5.37L150.89,61c-.23-2.44-.48-4.83-.76-7Zm-6.88-2.23c1.62.5,3.24,1,4.84,1.55-.11.37-.21.74-.32,1.11l-3.44-1.1c-.13.43-.27.87-.41,1.32l3.13,1c-.12.39-.23.78-.35,1.17l-3.15-1q-.23.69-.45,1.41,1.83.56,3.63,1.14c-.12.4-.24.8-.37,1.21l-5.13-1.6C143.44,56.23,144.12,54.12,144.77,52.19Zm-1.72,10.75c.13-.43.27-.85.4-1.28L149,63.39c-.12.43-.25.85-.39,1.27l-2-.63c-.55,1.8-1.12,3.6-1.68,5.35l-1.49-.46c.55-1.75,1.11-3.56,1.67-5.35Zm-1.88-11.85c-.56,1.55-1.14,3.21-1.71,4.91l2.81.85c-.14.42-.27.85-.41,1.28l-4.28-1.3c.71-2.15,1.44-4.23,2.16-6.16ZM141,68.16l-1.68-.54-.48-2.2-.14,0-1.36-.44c-.19.63-.37,1.26-.55,1.87l-1.45-.47c.61-2.16,1.28-4.38,2-6.58l2.85.87c1.73.54,2.46,1.68,2,3.16a2.3,2.3,0,0,1-1.9,1.76C140.47,66.42,140.71,67.29,141,68.16Zm-4-18.29,1.41.4c-.73,1.93-1.47,4-2.18,6.14L134.73,56C135.44,53.87,136.19,51.8,136.93,49.87Zm-6.7-1.72,1.17.28c.45,1.46.92,3,1.43,4.57.47-1.32.95-2.61,1.44-3.85l1.3.35c-.75,1.93-1.5,4-2.21,6.1l-1.26-.36q-.78-2.45-1.45-4.7c-.47,1.27-1,2.58-1.4,3.9L128,54.11C128.74,52.06,129.48,50.07,130.23,48.15Zm-4.93,9.32c.12-.4.25-.79.38-1.18,1.47.43,3,.89,4.7,1.39-.13.41-.26.82-.38,1.23l-1.78-.55c-.53,1.71-1,3.44-1.47,5.13l-1.26-.43c.43-1.69.93-3.39,1.45-5.09Zm7.12.82,1.45.44c.2,2.44.46,4.94.76,7.4l-1.52-.5c-.05-.47-.1-.95-.14-1.42l-2.85-.93-.8,1.09L128,63.9C129.34,62.08,130.85,60.18,132.42,58.29Zm-9-8c.4-1.1.8-2.19,1.19-3.28l1.06.18-1.22,3.31c-.3.83,0,1.43.61,1.6a1.42,1.42,0,0,0,1.62-1.1c.42-1.14.84-2.26,1.27-3.37l1.21.26c-.43,1.11-.86,2.24-1.28,3.4a2.69,2.69,0,0,1-3.23,2C123.24,52.91,122.83,51.79,123.38,50.3Zm-1.89,11.41A3.31,3.31,0,0,1,119.66,60l.77-.94a2.72,2.72,0,0,0,1.42,1.48c.46.16.8.05.91-.33.31-1.16-2.47-1.37-1.72-3.43a1.83,1.83,0,0,1,2.4-1.21,3.29,3.29,0,0,1,1.7,1.22l-.82,1A3.24,3.24,0,0,0,123,56.7c-.37-.11-.66,0-.77.3-.39,1.09,2.45,1.31,1.83,3.55A1.78,1.78,0,0,1,121.49,61.71Zm6.45,8.61c-.19,1-.9,1.33-2,.94l-.83-.3c-.06.4-.11.79-.16,1.17l-.93-.33c.16-1.35.4-2.77.7-4.25l1.77.63A1.84,1.84,0,0,1,127.94,70.32Zm4.33,1.53a1.2,1.2,0,0,1-1.12,1.07c.22.57.44,1.12.67,1.66l-1.11-.39c-.16-.46-.32-.92-.47-1.4l-.1,0-.9-.32c-.07.39-.13.78-.19,1.15l-1-.34c.19-1.32.45-2.75.77-4.23l1.91.67C132,70.09,132.49,70.89,132.27,71.85Zm5.27,2.5a2.14,2.14,0,0,1-3,1.24,2.6,2.6,0,0,1-1.92-2.9,2.15,2.15,0,0,1,3-1.38A2.59,2.59,0,0,1,137.54,74.35Zm4.1,3.06a3.92,3.92,0,0,1-2-.1,2.44,2.44,0,0,1-1.84-2.88A2.41,2.41,0,0,1,141,73.06a3.3,3.3,0,0,1,1.71,1.25l-.83.51a2.23,2.23,0,0,0-1.15-.9,1.44,1.44,0,0,0-1.88.87,1.46,1.46,0,0,0,1.07,1.76,2.21,2.21,0,0,0,1,.08c.12-.36.23-.72.35-1.09l.92.29Zm3.56,1.65-.3-1.37-.1,0-1-.3-.41,1.14-1-.33c.45-1.3.93-2.71,1.43-4.2l2.07.63c1.25.37,1.75,1.14,1.4,2.09a1.56,1.56,0,0,1-1.38,1.1c.16.55.32,1.1.48,1.63Zm5.29,1.55,0-.88-2.11-.6-.68.67-1.06-.31c1.18-1.12,2.39-2.34,3.61-3.63l1.08.3q.16,2.49.27,4.74Zm0-9.47a2.73,2.73,0,0,1-2-3.68c.4-1.28.8-2.57,1.19-3.86l1.47.47c-.39,1.28-.78,2.56-1.19,3.84a1.45,1.45,0,0,0,1,2,1.47,1.47,0,0,0,1.91-1.08c.41-1.26.8-2.54,1.17-3.81l1.41.45c-.37,1.26-.76,2.53-1.16,3.78A2.8,2.8,0,0,1,150.52,71.14Zm6.19,11-.84-.19c.37-.92.75-1.85,1.12-2.81-.69.73-1.38,1.44-2.08,2.12l-.64-.15c-.06-.88-.13-1.77-.19-2.69-.38,1-.76,1.9-1.14,2.8L152,81c.55-1.34,1.12-2.75,1.67-4.21l1.12.29c.09,1,.17,2,.25,2.93q1.14-1.12,2.25-2.31l1,.25C157.82,79.42,157.27,80.82,156.71,82.18Zm4.07-12.64a2.23,2.23,0,0,1-3,1.64l-1.17-.34c-.2.61-.41,1.21-.61,1.81l-1.37-.39c.72-2.11,1.41-4.28,2-6.44l2.52.81A2.14,2.14,0,0,1,160.78,69.54ZM166.72,62a1.85,1.85,0,0,1-1.44,1.59c.2.8.39,1.6.55,2.39l-1.3-.45c-.11-.68-.24-1.37-.38-2.05l-.11-.05-1.13-.4c-.14.59-.29,1.18-.45,1.78l-1.25-.44c.55-2.09,1-4.16,1.36-6.11l1.19.44a17.58,17.58,0,0,1,2.9,1.92A2.29,2.29,0,0,1,166.72,62Zm-40.39,7-.79-.28c-.09.49-.18,1-.26,1.46l.78.29c.53.19.87.06,1-.44S126.86,69.19,126.33,69Zm32.43-1.18-1.1-.35c-.22.73-.44,1.45-.67,2.18l1.1.33a1.07,1.07,0,0,0,1.48-.75A1,1,0,0,0,158.76,67.81ZM130.6,70.52l-.92-.33c-.1.5-.2,1-.29,1.46l.9.32c.54.2.91.07,1-.42S131.16,70.71,130.6,70.52Zm2-10.49-1.72,2.22,1.95.63C132.76,61.93,132.69,61,132.62,60Zm32.13.22-1.13-.41c-.13.67-.28,1.35-.44,2l1.13.41c.67.24,1.13,0,1.28-.65A1.12,1.12,0,0,0,164.75,60.25Zm-25,1.63-1.37-.43q-.36,1.13-.69,2.25l1.37.43c.81.25,1.41,0,1.64-.74S140.55,62.13,139.73,61.88Z"/>
          <path class="unienel-2" d="M54.15,4.48a2.32,2.32,0,1,0-3-1.31A2.32,2.32,0,0,0,54.15,4.48Zm7.43,52.93-.73.4c.31.4.62.79.93,1.16l.72-.4c.49-.26.62-.61.31-1A.88.88,0,0,0,61.58,57.41ZM59,46.77c.17.93.35,1.85.53,2.76l1.75-1.05Zm21.3,24.44c14.13-5.54,21.58-13.42,19.92-21.07a70.25,70.25,0,0,1-1.36-9.66,25.18,25.18,0,0,0-1-6.17c2-1.3,2.38-5,.87-8.86-1.64-4.18-4.82-6.7-7.25-5.75l-.14.06A30.66,30.66,0,0,0,75.88,8.16,29.51,29.51,0,0,0,40.71,22a30.53,30.53,0,0,0-3.45,19l-.15.06c-2.43.95-3,5-1.42,9.14C37.2,54,40,56.45,42.36,56.07a24.57,24.57,0,0,0,3.45,5.21,70.05,70.05,0,0,1,5.56,8C55.35,76,66.17,76.75,80.31,71.21Zm-37-16.1a.61.61,0,0,0-.8-.35c-1.72.67-4.31-1.64-5.65-5s-1-6.87.72-7.54a1.36,1.36,0,0,1,.45-.1.61.61,0,0,0,.43-.24.59.59,0,0,0,.12-.48,29.28,29.28,0,0,1,3.23-18.8A28.28,28.28,0,0,1,75.49,9.33,29.32,29.32,0,0,1,90.64,20.94a.61.61,0,0,0,.89.15,1.76,1.76,0,0,1,.4-.24c1.73-.68,4.31,1.64,5.65,5s1,6.87-.71,7.54a.61.61,0,0,0-.35.8,21.73,21.73,0,0,1,1.12,6.34A70.55,70.55,0,0,0,99,50.4c1.52,7-5.65,14.36-19.17,19.66s-23.78,4.78-27.43-1.39a70.68,70.68,0,0,0-5.65-8.15A21.59,21.59,0,0,1,43.29,55.11Zm61.61.77a.63.63,0,0,0-.63.61C104.2,63,95.44,70.58,81.94,75.87s-25.09,5.67-29.55,1a.62.62,0,0,0-.89.85c4.8,5.07,16.93,4.81,30.89-.66s23-13.53,23.12-20.52A.61.61,0,0,0,104.9,55.88ZM76.45,61.37A29.22,29.22,0,0,0,92.08,47.75a24.31,24.31,0,0,0,.81-20.18c-1.6-4.1-3.68-6.51-6.34-7.37-2.24-.72-4.89-.39-8.59,1.06-2,.77-4.07,1.78-6.3,2.86C69,25.39,66.3,26.7,63.32,27.87s-5.87,2.06-8.67,2.92C52.28,31.52,50,32.2,48.08,33c-5.61,2.2-10.29,5.51-6.66,14.78A24.34,24.34,0,0,0,55.73,62,29.19,29.19,0,0,0,76.45,61.37ZM56.57,54.12c-1-1.44-1.93-2.94-2.85-4.46l-1.46.91-.64-1.07,4.15-2.61.66,1.1-1.58,1c.93,1.53,1.9,3,2.88,4.49Zm1-8.35,1.29-.8c2,1.46,4,2.92,6,4.32l-1.38.81-1.16-.83L59.8,50.79c.09.44.19.88.28,1.32l-1.25.72C58.38,50.58,58,48.2,57.57,45.77Zm5.49,13.4-.77.42c.26.3.51.6.77.89l-.87.48c-.9-1-1.81-2.14-2.72-3.34l1.64-.9a1.85,1.85,0,0,1,2.53.36C64.27,57.88,64,58.62,63.06,59.17Zm5.31-1.62L67,57l-.08,0-.84.46.74.9-.89.49c-.86-1-1.76-2.15-2.66-3.37l1.76-1a1.85,1.85,0,0,1,2.61.31,1.21,1.21,0,0,1,.06,1.55c.57.21,1.13.41,1.69.59Zm3.61-2a2.63,2.63,0,0,1-3.45-.48A2.15,2.15,0,0,1,69.47,52a2.59,2.59,0,0,1,3.53.59A2.13,2.13,0,0,1,72,55.59Zm4.61-2.65a2.43,2.43,0,0,1-3.37-.52,2.41,2.41,0,0,1,1.1-3.33,3.25,3.25,0,0,1,2.06-.46c0,.33-.1.65-.16,1a2.17,2.17,0,0,0-1.43.26,1.44,1.44,0,0,0-.6,2,1.48,1.48,0,0,0,2,.37,2.5,2.5,0,0,0,.7-.68l-.59-1,.83-.5L78,51.49A3.87,3.87,0,0,1,76.59,52.94Zm5-3-1.23-.68-.09.06-.86.53L80,50.87l-.94.56c-.68-1.2-1.42-2.49-2.21-3.85l1.84-1.14c1.11-.69,2-.56,2.5.34a1.58,1.58,0,0,1-.09,1.76l1.54.71ZM86.26,47l-.68-.56-1.85,1.2c0,.31,0,.63.07.94l-1,.59c0-1.62-.17-3.34-.33-5.1l.94-.61c1.31,1,2.56,2,3.74,2.92Zm.24-5.57c.81.6,1.6,1.18,2.36,1.76-.06-1.07-.14-2.14-.24-3.22.3-.21.59-.41.87-.62q1.08,2.06,2.06,4l-.7.51c-.44-.89-.9-1.79-1.37-2.7.09,1,.17,2,.22,3l-.54.37L87,42.85c.47.91.92,1.82,1.35,2.7l-.77.52c-.64-1.3-1.32-2.66-2.06-4C85.87,41.81,86.19,41.6,86.5,41.38Zm-5-10.19a2.15,2.15,0,0,1,3.24.73A2.23,2.23,0,0,1,84,35.26l-1,.65c.33.55.64,1.1,1,1.65l-1.2.77c-1.1-1.93-2.28-3.88-3.48-5.78Zm-7.24,4.35c.71,1.13,1.41,2.28,2.1,3.43a1.44,1.44,0,0,0,2.12.55A1.47,1.47,0,0,0,79,37.37c-.69-1.14-1.38-2.28-2.09-3.4l1.27-.76c.7,1.12,1.4,2.25,2.07,3.38a2.8,2.8,0,0,1-1,4.08,2.74,2.74,0,0,1-4.12-.89c-.69-1.15-1.39-2.31-2.1-3.45ZM72.34,36.7l.7,1.13c-.6.37-1.2.74-1.81,1.1,1,1.61,2,3.22,2.91,4.8l-1.34.81-2.91-4.79-1.81,1.11c-.24-.38-.47-.76-.7-1.14ZM68.1,42.12a2.29,2.29,0,0,1,.06,2.59l2.46,1.17-1.52.91-2-1.1-.12.08-1.23.74,1,1.64c-.44.27-.87.53-1.31.78-1.22-1.88-2.45-3.86-3.64-5.83l2.54-1.56C66,40.59,67.3,40.8,68.1,42.12Zm-8-9c.82,1.43,1.7,3,2.61,4.5l2.52-1.55.7,1.15q-2,1.19-3.85,2.37c-1.16-2-2.26-3.88-3.26-5.67ZM57.7,34.6l.57,1c-1,.64-2,1.27-3,1.91L56,38.75,58.64,37l.6,1.07-2.7,1.72.73,1.28c1-.65,2.06-1.31,3.11-2l.64,1.1c-1.49.93-3,1.85-4.37,2.75-1.12-1.94-2.17-3.86-3.12-5.69C54.88,36.39,56.28,35.49,57.7,34.6Zm-8.82,5.87c1.37.63,2.8,1.28,4.31,2-.68-1.22-1.32-2.43-1.93-3.62l1.11-.74c1,1.84,2,3.75,3.09,5.68l-1.08.7c-1.54-.69-3-1.37-4.42-2,.64,1.19,1.3,2.4,2,3.61l-1,.68c-1.06-1.87-2.06-3.74-3-5.56Zm-2,9c-1-1.79-1.93-3.55-2.89-5.29.9-.75,1.93-1.55,3-2.37.18.33.35.67.53,1-.78.57-1.52,1.13-2.2,1.66L46,45.63c.61-.47,1.27-1,2-1.46l.56,1c-.7.5-1.37,1-2,1.44l.66,1.19c.71-.51,1.49-1.06,2.31-1.62l.58,1C49,48,47.87,48.77,46.91,49.45Zm6,6.77a3.24,3.24,0,0,1-2.49.24c-.06-.4-.13-.8-.2-1.2a2.69,2.69,0,0,0,2-.08c.42-.24.56-.57.35-.9-.66-1-2.65.95-3.7-1a1.84,1.84,0,0,1,.67-2.6,3.25,3.25,0,0,1,2-.46c.08.43.15.86.22,1.28a3.16,3.16,0,0,0-1.72.29c-.32.2-.45.48-.28.77.56,1,2.6-1,3.87,1A1.79,1.79,0,0,1,52.93,56.22Zm32-10.36L83.48,44.7c.07.67.13,1.33.19,2ZM83.71,32.61a1,1,0,0,0-1.6-.32l-1,.59c.4.65.8,1.3,1.19,1.95l1-.61A1.06,1.06,0,0,0,83.71,32.61ZM79.13,47.2l-.88.55c.26.45.52.9.76,1.34l.87-.54c.52-.32.7-.73.45-1.19S79.65,46.88,79.13,47.2Zm-13.59,8-.85.48.9,1.18.85-.47c.5-.28.64-.63.34-1A.88.88,0,0,0,65.54,55.21Zm-.45-9.81,1.23-.74c.73-.45,1-1,.53-1.72s-1-.74-1.76-.29l-1.23.75ZM70,52.7a1.29,1.29,0,0,0-.51,1.87,1.59,1.59,0,0,0,2,.36A1.25,1.25,0,0,0,72,53.11,1.53,1.53,0,0,0,70,52.7Z"/>
        </g>
        <text class="unienel-3" transform="translate(21.55 147.86)">Contest per sviluppare <tspan x="-14.11" y="21">progetti innovativi su sfide </tspan><tspan x="53.3" y="42">verticali.</tspan></text>
      </g>
    </g>
  </g>
</svg>
