<svg xmlns="http://www.w3.org/2000/svg" width="81.19" height="87.56" viewBox="0 0 81.19 87.56">
  <defs>
    <style>
      .cls-1 {
        fill: #4286fb;
      }
    </style>
  </defs>
  <title>vantaggio2</title>
  <g id="Livello_2" data-name="Livello 2">
    <g id="Livello_1-2" data-name="Livello 1">
      <g>
        <path class="cls-1" d="M73.29,6.43V3.08A3.08,3.08,0,0,0,70.21,0H67.67a3.08,3.08,0,0,0-3.08,3.08V6.37H44.74V3.08A3.08,3.08,0,0,0,41.66,0H39.12A3.08,3.08,0,0,0,36,3.08V6.37H16.2V3.08A3.09,3.09,0,0,0,13.12,0H10.57A3.08,3.08,0,0,0,7.49,3.08V6.49A8.91,8.91,0,0,0,0,15.32V78.61a9,9,0,0,0,9,9H72.24a9,9,0,0,0,9-9V15.32A9,9,0,0,0,73.29,6.43ZM66.92,3.08a.75.75,0,0,1,.75-.74h2.54a.74.74,0,0,1,.74.74V12a.75.75,0,0,1-.74.75H67.67a.76.76,0,0,1-.75-.75Zm-28.54,0a.74.74,0,0,1,.74-.74h2.55a.74.74,0,0,1,.74.74V12a.75.75,0,0,1-.74.75H39.12a.75.75,0,0,1-.74-.75Zm-28.55,0a.74.74,0,0,1,.74-.74h2.55a.74.74,0,0,1,.74.74V12a.75.75,0,0,1-.74.75H10.57A.75.75,0,0,1,9.83,12ZM7.49,8.87V12a3.08,3.08,0,0,0,3.08,3.07h2.55A3.08,3.08,0,0,0,16.2,12V8.71H36V12a3.08,3.08,0,0,0,3.08,3.07h2.55A3.09,3.09,0,0,0,44.75,12V8.71H64.59V12a3.08,3.08,0,0,0,3.08,3.07h2.55A3.08,3.08,0,0,0,73.29,12V8.8a6.61,6.61,0,0,1,5.57,6.52V26.7H2.34V15.32A6.59,6.59,0,0,1,7.49,8.87ZM72.24,85.22H9a6.62,6.62,0,0,1-6.61-6.61V29H78.85V78.61A6.62,6.62,0,0,1,72.24,85.22Z"/>
        <polygon class="cls-1" points="22.28 36.27 19.14 39.41 15.98 36.25 15.29 36.94 18.45 40.1 15.29 43.26 15.98 43.96 19.14 40.8 22.28 43.94 22.98 43.24 19.84 40.1 22.98 36.96 22.28 36.27"/>
        <polygon class="cls-1" points="43.87 36.27 40.73 39.41 37.57 36.25 36.88 36.94 40.04 40.1 36.88 43.26 37.57 43.96 40.73 40.8 43.87 43.94 44.57 43.24 41.43 40.1 44.57 36.96 43.87 36.27"/>
        <polygon class="cls-1" points="65.47 36.27 62.32 39.41 59.16 36.25 58.47 36.94 61.63 40.1 58.47 43.26 59.16 43.96 62.32 40.8 65.47 43.94 66.16 43.24 63.02 40.1 66.16 36.96 65.47 36.27"/>
        <polygon class="cls-1" points="22.28 53.53 19.14 56.67 15.98 53.51 15.29 54.21 18.45 57.37 15.29 60.53 15.98 61.23 19.14 58.07 22.28 61.21 22.98 60.51 19.84 57.37 22.98 54.23 22.28 53.53"/>
        <polygon class="cls-1" points="43.87 53.53 40.73 56.67 37.57 53.51 36.88 54.21 40.04 57.37 36.88 60.53 37.57 61.23 40.73 58.07 43.87 61.21 44.57 60.51 41.43 57.37 44.57 54.23 43.87 53.53"/>
        <polygon class="cls-1" points="65.47 53.06 62.32 56.2 59.16 53.04 58.47 53.74 61.63 56.9 58.47 60.06 59.16 60.76 62.32 57.59 65.47 60.73 66.16 60.04 63.02 56.9 66.16 53.76 65.47 53.06"/>
        <polygon class="cls-1" points="22.28 71.27 19.14 74.41 15.98 71.25 15.29 71.95 18.45 75.11 15.29 78.27 15.98 78.96 19.14 75.8 22.28 78.94 22.98 78.25 19.84 75.11 22.98 71.97 22.28 71.27"/>
        <polygon class="cls-1" points="43.87 71.27 40.73 74.41 37.57 71.25 36.88 71.95 40.04 75.11 36.88 78.27 37.57 78.96 40.73 75.8 43.87 78.94 44.57 78.25 41.43 75.11 44.57 71.97 43.87 71.27"/>
        <polygon class="cls-1" points="65.47 70.8 62.32 73.94 59.16 70.78 58.47 71.48 61.63 74.64 58.47 77.8 59.16 78.49 62.32 75.33 65.47 78.47 66.16 77.78 63.02 74.64 66.16 71.5 65.47 70.8"/>
      </g>
    </g>
  </g>
</svg>
