<svg xmlns="http://www.w3.org/2000/svg" width="93.03" height="71.32" viewBox="0 0 93.03 71.32">
  <defs>
    <style>
      .cls-1 {
        fill: #4286fb;
      }
    </style>
  </defs>
  <title>vantaggio4</title>
  <g id="Livello_2" data-name="Livello 2">
    <g id="Livello_1-2" data-name="Livello 1">
      <g>
        <path class="cls-1" d="M88.89,0H4.13A4.14,4.14,0,0,0,0,4.13V57.88A4.15,4.15,0,0,0,4.13,62H61v-3.1H4.13a1,1,0,0,1-1-1V4.13a1,1,0,0,1,1-1H88.89a1,1,0,0,1,1,1V57.88a1,1,0,0,1-1,1h-9.3V62h9.3A4.15,4.15,0,0,0,93,57.88V4.13A4.15,4.15,0,0,0,88.89,0Z"/>
        <path class="cls-1" d="M80.63,47.55a10.34,10.34,0,1,0-20.68,0,10.5,10.5,0,0,0,4.14,8.27v15.5l6.2-5.17,6.2,5.17V55.82A10.5,10.5,0,0,0,80.63,47.55ZM73.39,64.71l-1.14-.93-2-1.66-2,1.66-1.13.93V57.37a9.68,9.68,0,0,0,6.2,0Zm-3.1-9.93a7.24,7.24,0,1,1,7.23-7.23A7.19,7.19,0,0,1,70.29,54.78Z"/>
        <rect class="cls-1" x="13.44" y="12.4" width="66.15" height="3.1"/>
        <rect class="cls-1" x="13.44" y="25.84" width="41.35" height="2.07"/>
        <rect class="cls-1" x="13.44" y="32.04" width="41.35" height="2.07"/>
        <rect class="cls-1" x="13.44" y="38.25" width="35.14" height="2.07"/>
        <rect class="cls-1" x="13.44" y="44.45" width="35.14" height="2.07"/>
      </g>
    </g>
  </g>
</svg>
