<svg xmlns="http://www.w3.org/2000/svg" width="86" height="86.52" viewBox="0 0 86 86.52">
  <defs>
    <style>
      .cls-1 {
        fill: #4286fb;
      }
    </style>
  </defs>
  <title>vantaggio3</title>
  <g id="Livello_2" data-name="Livello 2">
    <g id="Livello_1-2" data-name="Livello 1">
      <g>
        <path class="cls-1" d="M21.3,12.1A9.37,9.37,0,0,0,12,21.43,9.57,9.57,0,0,0,21.3,30.9h0a9.39,9.39,0,0,0,6.58-16A8.85,8.85,0,0,0,21.3,12.1Zm0,16.83v0a7.43,7.43,0,1,1,5.39-12.62,7.2,7.2,0,0,1,2.11,5.25A7.55,7.55,0,0,1,21.3,28.93Z"/>
        <path class="cls-1" d="M85.08,47.47H67.59V26a4.73,4.73,0,0,0-1-9.34,4.79,4.79,0,0,0-4.61,3.68H42.6v-2.5l-4.34-.79a19.75,19.75,0,0,0-1.84-4.6l2.5-3.68-5-5-3.69,2.5a20.26,20.26,0,0,0-4.6-2L24.85,0h-7l-.79,4.34a19.75,19.75,0,0,0-4.6,1.84L8.81,3.94l-5,5,2.5,3.68a20.52,20.52,0,0,0-2,4.61L0,18v7l4.34.79a19.4,19.4,0,0,0,1.84,4.6l-2.5,3.69,5,5,3.68-2.5a24.53,24.53,0,0,0,4.6,2l.79,4.34h7l.79-4.34a19.84,19.84,0,0,0,4.6-1.84l3.68,2.49,5-5-2.5-3.68a28,28,0,0,0,2-4.61l4.34-.78v-2.5H62.06a4.7,4.7,0,0,0,3.55,3.55V47.6H48.26a1,1,0,0,0-1,1v9.21a1,1,0,0,0,1,1H84.94a1,1,0,0,0,1.06-1V48.65C86,47.86,85.6,47.47,85.08,47.47ZM40.63,23.41l-4.08.78-.13.66A17.5,17.5,0,0,1,34.32,30l-.39.53,2.36,3.42-2.63,2.62-3.42-2.36-.52.39a14.78,14.78,0,0,1-5.13,2.11l-.66.13-.79,4.07H19.46l-.79-4.07L18,36.69a17.62,17.62,0,0,1-5.12-2.11l-.53-.39L8.94,36.55,6.31,33.93l2.37-3.42L8.28,30a14.57,14.57,0,0,1-2.1-5.13l-.13-.66L2,23.41V19.72l4.08-.79.13-.65a14.57,14.57,0,0,1,2.1-5.13l.4-.53L6.31,9.07,8.94,6.44l3.42,2.37.53-.39A14.47,14.47,0,0,1,18,6.31l.66-.13.79-4.08h3.68l.79,4.08.66.13a14.59,14.59,0,0,1,5.13,2.11l.52.39,3.42-2.37,2.63,2.63-2.36,3.42.39.53a14.57,14.57,0,0,1,2.1,5.13l.13.65,4.08.79Zm23.28-2a2.76,2.76,0,1,1,2.76,2.76A2.78,2.78,0,0,1,63.91,21.43ZM84,56.67H49.31V49.44H84Z"/>
        <rect class="cls-1" x="74.95" y="52.07" width="1.97" height="1.97"/>
        <rect class="cls-1" x="70.61" y="52.07" width="1.97" height="1.97"/>
        <rect class="cls-1" x="79.29" y="52.07" width="1.97" height="1.97"/>
        <rect class="cls-1" x="52.86" y="52.07" width="9.6" height="1.97"/>
        <path class="cls-1" d="M85.08,61.28H48.26a1,1,0,0,0-1,1v9.2a1,1,0,0,0,1,1H84.94a1,1,0,0,0,1.06-1v-9.2A1,1,0,0,0,85.08,61.28ZM84,70.48H49.31V63.25H84Z"/>
        <rect class="cls-1" x="79.29" y="65.88" width="1.97" height="1.97"/>
        <rect class="cls-1" x="74.95" y="65.88" width="1.97" height="1.97"/>
        <rect class="cls-1" x="70.61" y="65.88" width="1.97" height="1.97"/>
        <rect class="cls-1" x="52.86" y="65.88" width="9.6" height="1.97"/>
        <path class="cls-1" d="M85.08,75.21H48.26a1,1,0,0,0-1,1.06v9.2a1,1,0,0,0,1,1H84.94a1,1,0,0,0,1.06-1v-9.2A1,1,0,0,0,85.08,75.21ZM84,84.42H49.31V77.19H84Z"/>
        <rect class="cls-1" x="74.95" y="79.82" width="1.97" height="1.97"/>
        <rect class="cls-1" x="79.29" y="79.82" width="1.97" height="1.97"/>
        <rect class="cls-1" x="70.61" y="79.82" width="1.97" height="1.97"/>
        <rect class="cls-1" x="52.86" y="79.82" width="9.6" height="1.97"/>
      </g>
    </g>
  </g>
</svg>
