<svg xmlns="http://www.w3.org/2000/svg" width="96.05" height="91.36" viewBox="0 0 96.05 91.36">
  <defs>
    <style>
      .cls-1 {
        fill: #4286fb;
      }
    </style>
  </defs>
  <title>vantaggio1</title>
  <g id="Livello_2" data-name="Livello 2">
    <g id="Livello_1-2" data-name="Livello 1">
      <g>
        <path class="cls-1" d="M78.33,71.47a4.68,4.68,0,1,0,0-9.35h-21a4.68,4.68,0,0,0,0,9.35h9.36V84.74L56.8,89.12a1.17,1.17,0,0,0,1,2.14l10.06-4.48,10,4.46a1.17,1.17,0,0,0,1-2.13L69,84.74V71.47Zm-21-2.33a2.34,2.34,0,0,1,0-4.68h21a2.34,2.34,0,0,1,0,4.68Z"/>
        <path class="cls-1" d="M39.75,71.47a4.68,4.68,0,0,0,0-9.35h-21a4.68,4.68,0,1,0,0,9.35h9.35V84.74l-9.83,4.38a1.17,1.17,0,0,0-.6,1.54,1.18,1.18,0,0,0,1.55.6l10-4.48,10.05,4.46a1.16,1.16,0,0,0,1.54-.59,1.17,1.17,0,0,0-.6-1.54h0l-9.82-4.37V71.47Zm-21-2.33a2.34,2.34,0,1,1,0-4.68H39.75a2.34,2.34,0,0,1,0,4.68Z"/>
        <path class="cls-1" d="M25.08,35a1.18,1.18,0,1,0-1.7-1.65l-4,4A1.17,1.17,0,1,0,21,39Z"/>
        <path class="cls-1" d="M27.81,33.47l-6.87,6.88a1.17,1.17,0,0,0,1.53,1.77,1.36,1.36,0,0,0,.12-.12l6.88-6.87a1.17,1.17,0,0,0-1.65-1.64Z"/>
        <path class="cls-1" d="M63.13,35.05a1.17,1.17,0,0,0-1.65-1.65l-4,4A1.17,1.17,0,0,0,59,39.18a.8.8,0,0,0,.13-.13Z"/>
        <path class="cls-1" d="M65.81,33.54l-6.87,6.88a1.17,1.17,0,0,0,1.53,1.78l.12-.13,6.88-6.84a1.17,1.17,0,0,0-.13-1.65,1.16,1.16,0,0,0-1.52,0Z"/>
        <path class="cls-1" d="M95.76,29.81,76.67,6.5a1.24,1.24,0,0,0-.51-.34l.66-1.33a1.17,1.17,0,0,0-.52-1.57l-1.06-.51h0l.52-1.06a1.18,1.18,0,0,0-2.11-1l-.51,1.06h0l-1-.52a1.17,1.17,0,0,0-1.57.53l-2.07,4.2v.16A8.07,8.07,0,0,0,61,10.59l-2.4,4.76a1.17,1.17,0,0,0,.53,1.57l12.58,6.21a1.26,1.26,0,0,0,.51.11,1.16,1.16,0,0,0,1-.65l2.34-4.78A7.94,7.94,0,0,0,76,11.6a8.1,8.1,0,0,0-1.33-2.34,1.27,1.27,0,0,0,.13-.19l.36-.73,17.29,21.1-5.2,15.81a6,6,0,0,0-4.75,4h-.75a2.83,2.83,0,0,0-2.24-3.51h0V30.55a1.17,1.17,0,0,0-1.17-1.17H55a1.17,1.17,0,0,0-1.17,1.17v15.2h0a2.89,2.89,0,0,0-2.38,3.32,1.06,1.06,0,0,0,0,.19h-7.1a2.33,2.33,0,0,0,.08-.59,2.91,2.91,0,0,0-2.34-2.92h0V30.55a1.17,1.17,0,0,0-1.16-1.17H17.53a1.17,1.17,0,0,0-1.17,1.17v15.2h0A2.88,2.88,0,0,0,14,49.07l0,.19h-.56a6,6,0,0,0-4.73-4L3.58,29.44,20.91,8.34l.36.73a1.88,1.88,0,0,0,.12.18,8.09,8.09,0,0,0-1,8.64l2.33,4.78a1.18,1.18,0,0,0,1.57.53L36.88,17a1.17,1.17,0,0,0,.57-1.55l0-.09-2.34-4.78a8.08,8.08,0,0,0-7.48-4.51V5.89l-2.07-4.2A1.17,1.17,0,0,0,24,1.17l-1.05.51h0l-.52-1a1.17,1.17,0,0,0-2.09,1l.51,1.05h0l-1.05.52a1.17,1.17,0,0,0-.57,1.55s0,0,0,0l.67,1.33a1.21,1.21,0,0,0-.52.34L.26,29.81a1.17,1.17,0,0,0,.9,1.91,1.17,1.17,0,0,0,.63-.22L6.36,45.38a5.82,5.82,0,0,0-4.12,3.88,1.18,1.18,0,0,0-1.08,1.17V90.18a1.17,1.17,0,0,0,2.34,0V56.27H92.36V90.18a1.17,1.17,0,1,0,2.34,0V50.43a1.17,1.17,0,0,0-.91-1.17,5.86,5.86,0,0,0-4.14-3.93L94.23,31.5a1.11,1.11,0,0,0,1.38,0,1.18,1.18,0,0,0,.19-1.65S95.77,29.83,95.76,29.81Zm-23.65-26,2.09,1L72.87,7.55a8.78,8.78,0,0,0-1.06-.64,7.49,7.49,0,0,0-1-.41Zm1.41,13-1.84,3.74L61.15,15.39,63,11.64A5.79,5.79,0,0,1,70.73,9a5.92,5.92,0,0,1,3,3.37,5.61,5.61,0,0,1-.2,4.42ZM29.68,8.72A5.78,5.78,0,0,1,33,11.63l1.84,3.72L24.31,20.52l-1.85-3.74A5.93,5.93,0,0,1,25.22,9a5.73,5.73,0,0,1,4.41-.29ZM25.26,6.5a7.49,7.49,0,0,0-1,.41,8.78,8.78,0,0,0-1.06.64L21.82,4.83l2.09-1ZM56.11,31.72h21v14h-21Zm-2,17.54a.59.59,0,1,1,.21-1.17H78.91a.6.6,0,1,1,.23,1.17h-25ZM18.7,31.72H39.75v14h-21Zm-2,17.54A.59.59,0,0,1,17,48.09H41.5a.6.6,0,0,1,.26,1.17h-25ZM7.88,47.5A3.62,3.62,0,0,1,11,49.26H4.79A3.6,3.6,0,0,1,7.88,47.5ZM3.5,51.6H92.36v2.34H3.5Zm87.69-2.34H85.06A3.59,3.59,0,0,1,90,48.07,3.48,3.48,0,0,1,91.19,49.26Z"/>
      </g>
    </g>
  </g>
</svg>
