<svg xmlns="http://www.w3.org/2000/svg" width="88.86" height="82.66" viewBox="0 0 88.86 82.66">
  <defs>
    <style>
      .cls-1 {
        fill: #d329bd;
      }
    </style>
  </defs>
  <title>vantaggio5</title>
  <g id="Livello_2" data-name="Livello 2">
    <g id="Livello_1-2" data-name="Livello 1">
      <path class="cls-1" d="M85.76,19.12H64.13a12,12,0,0,0,2.45-3.23,10.05,10.05,0,0,0,1.1-4.52,11.75,11.75,0,0,0-3-8A10.52,10.52,0,0,0,56.83,0a13.5,13.5,0,0,0-8.55,2.6,12.73,12.73,0,0,0-4.4,7.18.94.94,0,0,0,0,.16,10.46,10.46,0,0,0-2-2.33,10.08,10.08,0,0,0-6.69-2.44A8.78,8.78,0,0,0,26.35,14a7.52,7.52,0,0,0,.91,3.55,9.1,9.1,0,0,0,1.14,1.62H3.1A3.1,3.1,0,0,0,0,22.22V38.75a3.1,3.1,0,0,0,3.1,3.1H6.72V79a3.61,3.61,0,0,0,3.61,3.62h68.2A3.61,3.61,0,0,0,82.14,79V41.85h3.62a3.1,3.1,0,0,0,3.1-3.1V22.22A3.1,3.1,0,0,0,85.76,19.12ZM46.58,12.36a14.77,14.77,0,0,1,.3-1.82A9.73,9.73,0,0,1,50.18,5,10.49,10.49,0,0,1,56.83,3.1a7.39,7.39,0,0,1,5.54,2.38,8.57,8.57,0,0,1,2.21,5.89,6.82,6.82,0,0,1-.77,3.12,9.42,9.42,0,0,1-3.52,3.69,10.36,10.36,0,0,1-2.06.94H46.07c0-1.19.14-2.69.26-4.18C46.4,14,46.48,13.13,46.58,12.36Zm-15,5.51A6.33,6.33,0,0,1,30,16,4.45,4.45,0,0,1,29.45,14a5.67,5.67,0,0,1,5.68-5.68A7,7,0,0,1,39.81,10a8.38,8.38,0,0,1,2.6,4.37A11.66,11.66,0,0,1,42.64,16c.09,1,.15,2.14.19,3.12h-9.2A7.64,7.64,0,0,1,31.53,17.87ZM3.1,22.22H42.88V38.75H3.1ZM10,79.41A.5.5,0,0,1,9.82,79V41.85H42.88V79.56H10.33A.49.49,0,0,1,10,79.41ZM79,79a.5.5,0,0,1-.15.37.49.49,0,0,1-.36.15H46V41.85H79Zm6.72-40.29H46V22.22H85.76Z"/>
    </g>
  </g>
</svg>
