<svg xmlns="http://www.w3.org/2000/svg" viewBox="0 0 630.19 514.44"><defs><style>.cls-1{opacity:0.3;}.cls-2{fill:#e6e6e6;}</style></defs><title>Risorsa 1</title><g id="Livello_2" data-name="Livello 2"><g id="Livello_1-2" data-name="Livello 1"><g class="cls-1"><path class="cls-2" d="M245,239.5a74.45,74.45,0,1,0,10.66-104.63A74.46,74.46,0,0,0,245,239.5ZM334.27,161a42.37,42.37,0,0,1,3,3.29,44.48,44.48,0,1,1-3-3.29Z"/><path class="cls-2" d="M371.87,343.35a41.65,41.65,0,1,0,6-58.6A41.7,41.7,0,0,0,371.87,343.35Zm41.51-33.83a11.9,11.9,0,1,1-16.74-1.71A11.91,11.91,0,0,1,413.38,309.52Z"/><path class="cls-2" d="M624.35,412.94c17.79-35.34-6.48-81.89-53.44-129.06A256.42,256.42,0,0,0,514.56,94.63q-2.77-3.39-5.63-6.65C418.24-16,260.23-30,152.51,57.75q-5.83,4.77-11.31,9.8C50.13,54.47,17.31,78.73,5.85,101.49c-14.53,28.86-1,65.17,30,103.22,7,8.52,14.87,17.13,23.46,25.77A256.53,256.53,0,0,0,115.63,419.8c89.65,110,252.07,126.53,362.05,36.88q5.83-4.77,11.31-9.8C580.06,460,612.88,435.7,624.35,412.94ZM520,158.35a20.79,20.79,0,0,1-20.24-34A226.23,226.23,0,0,1,520,158.35Zm-39.26-57.06a50.5,50.5,0,0,0,50.43,84.76A228.16,228.16,0,0,1,478.9,415.13C417.71,404.24,345,378.52,272.41,342S136,262.38,90.78,219.73A228.21,228.21,0,0,1,171.31,80.81c2.62-2.14,5.3-4.18,8-6.18C272,5.63,402.08,17.55,480.78,101.29ZM32.42,114.87C40.82,98.19,71.29,91,115.64,94.58a256.21,256.21,0,0,0-49.87,99.36C36.4,160.41,24,131.58,32.42,114.87ZM138.69,401A226.49,226.49,0,0,1,87.63,256.76c47.1,40.5,108.32,80,171.41,111.79,66.32,33.4,133,58.08,191.85,71.25C353.89,512,215.84,495.65,138.69,401Zm375.86,18.86a256.28,256.28,0,0,0,49.87-99.36c2.28,2.61,4.5,5.2,6.57,7.75,24.62,30.2,34.54,55.91,26.78,71.31C589.37,416.24,558.9,423.45,514.55,419.86Z"/></g></g></g></svg>